<svg width="30" height="15" viewBox="0 0 30 15" fill="none" xmlns="http://www.w3.org/2000/svg">
<path d="M29.6552 7.02173L22.8707 0.237162C22.627 -0.0474226 22.1987 -0.0805978 21.9141 0.163174C21.6295 0.406887 21.5963 0.835193 21.8401 1.11978C21.8629 1.14631 21.8876 1.17109 21.9141 1.19377L27.5385 6.82495H0.678433C0.303767 6.82495 0 7.12872 0 7.50344C0 7.87816 0.303767 8.18187 0.678433 8.18187H27.5385L21.9141 13.8062C21.6295 14.0499 21.5963 14.4783 21.8401 14.7628C22.0839 15.0474 22.5121 15.0806 22.7967 14.8368C22.8232 14.8141 22.848 14.7894 22.8707 14.7628L29.6553 7.97827C29.9183 7.71375 29.9183 7.28637 29.6552 7.02173Z" fill="#151515"/>
</svg>
