<svg width="30" height="15" viewBox="0 0 30 15" fill="none" xmlns="http://www.w3.org/2000/svg">
<path d="M29.8027 7.02173L23.0182 0.237162C22.7745 -0.0474226 22.3461 -0.0805978 22.0616 0.163174C21.777 0.406887 21.7438 0.835193 21.9876 1.11978C22.0103 1.14631 22.035 1.17109 22.0616 1.19377L27.6859 6.82495H0.825894C0.451228 6.82495 0.147461 7.12872 0.147461 7.50344C0.147461 7.87816 0.451228 8.18187 0.825894 8.18187H27.6859L22.0616 13.8062C21.777 14.0499 21.7438 14.4783 21.9876 14.7628C22.2313 15.0474 22.6596 15.0806 22.9442 14.8368C22.9707 14.8141 22.9955 14.7894 23.0182 14.7628L29.8027 7.97827C30.0657 7.71375 30.0657 7.28637 29.8027 7.02173Z" fill="#424B75"/>
</svg>
