<svg width="10" height="19" viewBox="0 0 10 19" fill="none" xmlns="http://www.w3.org/2000/svg">
<path d="M4.33411 18.3045L0.146387 14.1168C-0.0292713 13.9664 -0.0497485 13.702 0.100718 13.5263C0.251149 13.3507 0.515518 13.3302 0.691176 13.4807C0.70755 13.4947 0.722845 13.51 0.736845 13.5263L4.21265 16.9979L4.21265 0.418758C4.21265 0.187498 4.40015 0 4.63145 0C4.86274 0 5.05021 0.187498 5.05021 0.418758L5.05021 16.9979L8.52181 13.5263C8.67224 13.3507 8.93661 13.3302 9.11226 13.4807C9.28792 13.6311 9.3084 13.8955 9.15793 14.0711C9.1439 14.0875 9.12864 14.1028 9.11226 14.1168L4.92454 18.3045C4.76126 18.4669 4.49746 18.4669 4.33411 18.3045Z" fill="#151515"/>
</svg>
