<svg width="30" height="15" viewBox="0 0 30 15" fill="none" xmlns="http://www.w3.org/2000/svg">
<path d="M0.197329 7.02173L6.98184 0.237162C7.22555 -0.0474226 7.65385 -0.0805978 7.93844 0.163174C8.22302 0.406887 8.2562 0.835193 8.01243 1.11978C7.98969 1.14631 7.96497 1.17109 7.93844 1.19377L2.31408 6.82495H29.1741C29.5488 6.82495 29.8525 7.12872 29.8525 7.50344C29.8525 7.87816 29.5488 8.18187 29.1741 8.18187H2.31408L7.93844 13.8062C8.22302 14.0499 8.2562 14.4783 8.01243 14.7628C7.76866 15.0474 7.34041 15.0806 7.05582 14.8368C7.02929 14.8141 7.00452 14.7894 6.98184 14.7628L0.197271 7.97827C-0.0657425 7.71375 -0.0657406 7.28637 0.197329 7.02173Z" fill="#424B75" fill-opacity="0.6"/>
</svg>
