<svg width="18" height="18" viewBox="0 0 18 18" fill="none" xmlns="http://www.w3.org/2000/svg">
<path fill-rule="evenodd" clip-rule="evenodd" d="M0 9C0 4.03749 4.03749 0 9 0C13.9625 0 18 4.03749 18 9C18 13.9625 13.9625 18 9 18C4.03749 18 0 13.9625 0 9ZM1.12501 9C1.12501 13.3424 4.65765 16.875 9 16.875C13.3424 16.875 16.875 13.3424 16.875 9C16.875 4.65765 13.3424 1.12501 9 1.12501C4.65765 1.12501 1.12501 4.65765 1.12501 9ZM8.4375 3.37501H9.5625V8.76709L12.7727 11.9773L11.9773 12.7727L8.4375 9.23291V3.37501Z" fill="black"/>
</svg>
