<svg width="16" height="16" viewBox="0 0 16 16" fill="none" xmlns="http://www.w3.org/2000/svg">
<path d="M0.166174 15.8324C0.219247 15.8855 0.282271 15.9277 0.351644 15.9564C0.421017 15.9852 0.495379 16 0.570476 16C0.645574 16 0.719935 15.9852 0.789308 15.9564C0.858682 15.9277 0.921706 15.8855 0.974779 15.8324L7.99792 8.8099L15.0239 15.8324C15.1312 15.9396 15.2766 15.9999 15.4282 15.9999C15.5799 15.9999 15.7253 15.9396 15.8325 15.8324C15.9398 15.7252 16 15.5798 16 15.4281C16 15.2765 15.9398 15.1311 15.8325 15.0239L8.80653 8.00136L15.8297 0.975985C15.9369 0.868767 15.9971 0.723348 15.9971 0.571719C15.9971 0.42009 15.9369 0.274671 15.8297 0.167453C15.7224 0.0602345 15.577 0 15.4254 0C15.2737 0 15.1283 0.0602345 15.0211 0.167453L7.99792 7.19283L0.971921 0.17031C0.862602 0.076699 0.721981 0.0277836 0.578161 0.0333383C0.43434 0.038893 0.297912 0.0985085 0.196139 0.200272C0.0943666 0.302035 0.0347458 0.438451 0.0291906 0.582259C0.0236354 0.726067 0.0725552 0.866675 0.166174 0.975985L7.18932 8.00136L0.166174 15.0267C0.0597406 15.1338 0 15.2786 0 15.4296C0 15.5805 0.0597406 15.7254 0.166174 15.8324Z" fill="black"/>
</svg>
