<svg width="28" height="26" viewBox="0 0 28 26" fill="none" xmlns="http://www.w3.org/2000/svg">
    <path d="M25.179 0H2.34739C1.72544 0.00201605 1.12955 0.249977 0.689761 0.689761C0.249977 1.12955 0.00201605 1.72544 0 2.34739V12.945C0.00201605 13.567 0.249977 14.1629 0.689761 14.6027C1.12955 15.0424 1.72544 15.2904 2.34739 15.2924H25.179C25.8009 15.2904 26.3968 15.0424 26.8366 14.6027C27.2764 14.1629 27.5244 13.567 27.5264 12.945V2.34739C27.5244 1.72544 27.2764 1.12955 26.8366 0.689761C26.3968 0.249977 25.8009 0.00201605 25.179 0ZM6.11697 13.7632V11.4693H21.4094V13.7632H6.11697ZM25.9971 12.945C25.9971 13.0525 25.976 13.1589 25.9348 13.2581C25.8937 13.3574 25.8335 13.4476 25.7575 13.5236C25.6815 13.5995 25.5913 13.6598 25.4921 13.7009C25.3928 13.742 25.2864 13.7632 25.179 13.7632H22.9386V10.7047C22.9386 10.5019 22.8581 10.3074 22.7147 10.164C22.5713 10.0206 22.3768 9.94008 22.174 9.94008H5.35235C5.14956 9.94008 4.95507 10.0206 4.81168 10.164C4.66829 10.3074 4.58773 10.5019 4.58773 10.7047V13.7632H2.34739C2.23995 13.7632 2.13356 13.742 2.0343 13.7009C1.93503 13.6598 1.84484 13.5995 1.76887 13.5236C1.61544 13.3701 1.52924 13.162 1.52924 12.945V2.34739C1.52924 2.1304 1.61544 1.9223 1.76887 1.76887C1.9223 1.61544 2.1304 1.52924 2.34739 1.52924H25.179C25.2864 1.52924 25.3928 1.5504 25.4921 1.59152C25.5913 1.63264 25.6815 1.6929 25.7575 1.76887C25.8335 1.84484 25.8937 1.93503 25.9348 2.0343C25.976 2.13356 25.9971 2.23995 25.9971 2.34739V12.945Z" fill="white"/>
    <path d="M6.8817 3.05847H3.82322C3.62042 3.05847 3.42594 3.13903 3.28255 3.28242C3.13915 3.42582 3.05859 3.6203 3.05859 3.82309C3.05859 4.02588 3.13915 4.22037 3.28255 4.36376C3.42594 4.50716 3.62042 4.58771 3.82322 4.58771H6.8817C7.08449 4.58771 7.27897 4.50716 7.42237 4.36376C7.56576 4.22037 7.64632 4.02588 7.64632 3.82309C7.64632 3.6203 7.56576 3.42582 7.42237 3.28242C7.27897 3.13903 7.08449 3.05847 6.8817 3.05847Z" fill="white"/>
    <path d="M23.7041 4.58771C24.1264 4.58771 24.4687 4.24538 24.4687 3.82309C24.4687 3.4008 24.1264 3.05847 23.7041 3.05847C23.2818 3.05847 22.9395 3.4008 22.9395 3.82309C22.9395 4.24538 23.2818 4.58771 23.7041 4.58771Z" fill="white"/>
    <path d="M21.4092 4.58771C21.8314 4.58771 22.1738 4.24538 22.1738 3.82309C22.1738 3.4008 21.8314 3.05847 21.4092 3.05847C20.9869 3.05847 20.6445 3.4008 20.6445 3.82309C20.6445 4.24538 20.9869 4.58771 21.4092 4.58771Z" fill="white"/>
    <path d="M7.64705 18.955L8.27404 18.0069C8.3641 17.839 8.38823 17.6435 8.34172 17.4588C8.29521 17.274 8.18141 17.1133 8.0226 17.008C7.86379 16.9028 7.67141 16.8606 7.48314 16.8898C7.29487 16.919 7.12428 17.0174 7.00477 17.1658L6.37013 18.1063C6.02246 18.6358 5.86696 19.2686 5.92958 19.899C5.9922 20.5294 6.26915 21.1192 6.71421 21.57C6.91321 21.7675 7.0373 22.0282 7.0652 22.3072C7.0931 22.5862 7.02308 22.8662 6.86714 23.0992L6.24015 24.0474C6.12948 24.2159 6.08989 24.4214 6.12999 24.619C6.17009 24.8166 6.28663 24.9904 6.45424 25.1025C6.5795 25.1903 6.72951 25.2359 6.88243 25.2325C7.00837 25.2319 7.1322 25.2001 7.24291 25.1401C7.35363 25.0801 7.4478 24.9936 7.51707 24.8884L8.1517 23.948C8.49937 23.4184 8.65488 22.7856 8.59226 22.1552C8.52964 21.5249 8.25268 20.935 7.80762 20.4842C7.60744 20.2876 7.48193 20.0275 7.45263 19.7485C7.42333 19.4694 7.49207 19.1889 7.64705 18.955Z" fill="white"/>
    <path d="M12.0424 18.955L12.6694 18.0069C12.7808 17.8392 12.8216 17.6344 12.7829 17.4369C12.7443 17.2393 12.6293 17.065 12.4629 16.9517C12.3792 16.8957 12.2852 16.8568 12.1863 16.8373C12.0875 16.8177 11.9858 16.8179 11.887 16.8378C11.7882 16.8577 11.6944 16.8969 11.6108 16.9532C11.5273 17.0095 11.4557 17.0817 11.4001 17.1658L10.7731 18.1063C10.4212 18.6344 10.2632 19.2681 10.3259 19.8997C10.3887 20.5312 10.6683 21.1214 11.1172 21.57C11.3137 21.7692 11.4355 22.0302 11.462 22.3088C11.4884 22.5874 11.418 22.8666 11.2625 23.0993L10.6355 24.0474C10.5248 24.216 10.4852 24.4214 10.5253 24.619C10.5654 24.8167 10.682 24.9905 10.8496 25.1026C10.9727 25.1888 11.1198 25.2343 11.2701 25.2325C11.3961 25.2319 11.5199 25.2001 11.6306 25.1401C11.7413 25.0801 11.8355 24.9936 11.9048 24.8885L12.5394 23.948C12.892 23.4226 13.0539 22.7923 12.9983 22.1621C12.9426 21.5319 12.6727 20.9397 12.2335 20.4842C12.0299 20.2907 11.8995 20.0326 11.8647 19.7538C11.8298 19.475 11.8926 19.1927 12.0424 18.955Z" fill="white"/>
    <path d="M16.2642 18.955L16.8912 18.0068C16.958 17.924 17.0067 17.8281 17.0343 17.7254C17.0618 17.6226 17.0677 17.5152 17.0514 17.4101C17.0351 17.305 16.997 17.2044 16.9396 17.1148C16.8823 17.0252 16.8068 16.9486 16.7181 16.8898C16.6294 16.831 16.5295 16.7914 16.4246 16.7735C16.3197 16.7556 16.2123 16.7597 16.1091 16.7857C16.0059 16.8117 15.9093 16.8589 15.8254 16.9243C15.7415 16.9898 15.6722 17.072 15.622 17.1658L14.9873 18.1062C14.6396 18.6358 14.4841 19.2686 14.5468 19.899C14.6094 20.5293 14.8863 21.1192 15.3314 21.57C15.5291 21.7683 15.6523 22.0287 15.6802 22.3074C15.708 22.586 15.6388 22.8657 15.4843 23.0992L14.8573 24.0474C14.7459 24.215 14.7051 24.4198 14.7438 24.6174C14.7824 24.8149 14.8974 24.9892 15.0638 25.1025C15.1904 25.1876 15.3395 25.2329 15.492 25.2325C15.6179 25.2319 15.7417 25.2001 15.8525 25.1401C15.9632 25.0801 16.0573 24.9936 16.1266 24.8884L16.7536 23.948C17.1055 23.4198 17.2635 22.7861 17.2008 22.1546C17.138 21.5231 16.8584 20.9328 16.4095 20.4842C16.213 20.285 16.0912 20.024 16.0648 19.7454C16.0383 19.4669 16.1087 19.1877 16.2642 18.955Z" fill="white"/>
    <path d="M20.6451 18.955L21.2721 18.0069C21.3621 17.839 21.3863 17.6435 21.3398 17.4588C21.2933 17.274 21.1795 17.1133 21.0206 17.008C20.8618 16.9028 20.6695 16.8606 20.4812 16.8898C20.2929 16.919 20.1223 17.0174 20.0028 17.1658L19.3682 18.1063C19.0205 18.6358 18.865 19.2686 18.9276 19.899C18.9902 20.5294 19.2672 21.1192 19.7123 21.57C19.9113 21.7675 20.0353 22.0282 20.0632 22.3072C20.0911 22.5862 20.0211 22.8662 19.8652 23.0992L19.2382 24.0474C19.1275 24.2159 19.0879 24.4214 19.128 24.619C19.1681 24.8166 19.2847 24.9904 19.4523 25.1025C19.5775 25.1903 19.7276 25.2359 19.8805 25.2325C20.0064 25.2319 20.1302 25.2001 20.241 25.1401C20.3517 25.0801 20.4458 24.9936 20.5151 24.8884L21.1497 23.948C21.4974 23.4184 21.6529 22.7856 21.5903 22.1552C21.5277 21.5249 21.2507 20.935 20.8057 20.4842C20.6055 20.2876 20.48 20.0275 20.4507 19.7485C20.4214 19.4694 20.4901 19.1889 20.6451 18.955Z" fill="white"/>
</svg>
