<svg width="28" height="26" viewBox="0 0 28 26" fill="none" xmlns="http://www.w3.org/2000/svg">
<path d="M25.179 0H2.34739C1.72544 0.00201605 1.12955 0.249977 0.689761 0.689761C0.249977 1.12955 0.00201605 1.72544 0 2.34739V12.945C0.00201605 13.567 0.249977 14.1629 0.689761 14.6027C1.12955 15.0424 1.72544 15.2904 2.34739 15.2924H25.179C25.8009 15.2904 26.3968 15.0424 26.8366 14.6027C27.2764 14.1629 27.5244 13.567 27.5264 12.945V2.34739C27.5244 1.72544 27.2764 1.12955 26.8366 0.689761C26.3968 0.249977 25.8009 0.00201605 25.179 0ZM6.11697 13.7632V11.4693H21.4094V13.7632H6.11697ZM25.9971 12.945C25.9971 13.0525 25.976 13.1589 25.9348 13.2581C25.8937 13.3574 25.8335 13.4476 25.7575 13.5236C25.6815 13.5995 25.5913 13.6598 25.4921 13.7009C25.3928 13.742 25.2864 13.7632 25.179 13.7632H22.9386V10.7047C22.9386 10.5019 22.8581 10.3074 22.7147 10.164C22.5713 10.0206 22.3768 9.94008 22.174 9.94008H5.35235C5.14956 9.94008 4.95507 10.0206 4.81168 10.164C4.66829 10.3074 4.58773 10.5019 4.58773 10.7047V13.7632H2.34739C2.23995 13.7632 2.13356 13.742 2.0343 13.7009C1.93503 13.6598 1.84484 13.5995 1.76887 13.5236C1.61544 13.3701 1.52924 13.162 1.52924 12.945V2.34739C1.52924 2.1304 1.61544 1.9223 1.76887 1.76887C1.9223 1.61544 2.1304 1.52924 2.34739 1.52924H25.179C25.2864 1.52924 25.3928 1.5504 25.4921 1.59152C25.5913 1.63264 25.6815 1.6929 25.7575 1.76887C25.8335 1.84484 25.8937 1.93503 25.9348 2.0343C25.976 2.13356 25.9971 2.23995 25.9971 2.34739V12.945Z" fill="#424B75"/>
<path d="M6.8817 3.05847H3.82322C3.62042 3.05847 3.42594 3.13903 3.28255 3.28242C3.13915 3.42582 3.05859 3.6203 3.05859 3.82309C3.05859 4.02588 3.13915 4.22037 3.28255 4.36376C3.42594 4.50716 3.62042 4.58771 3.82322 4.58771H6.8817C7.08449 4.58771 7.27897 4.50716 7.42237 4.36376C7.56576 4.22037 7.64632 4.02588 7.64632 3.82309C7.64632 3.6203 7.56576 3.42582 7.42237 3.28242C7.27897 3.13903 7.08449 3.05847 6.8817 3.05847Z" fill="#424B75"/>
<path d="M23.7031 4.58771C24.1254 4.58771 24.4677 4.24538 24.4677 3.82309C24.4677 3.4008 24.1254 3.05847 23.7031 3.05847C23.2808 3.05847 22.9385 3.4008 22.9385 3.82309C22.9385 4.24538 23.2808 4.58771 23.7031 4.58771Z" fill="#424B75"/>
<path d="M21.4092 4.58771C21.8314 4.58771 22.1738 4.24538 22.1738 3.82309C22.1738 3.4008 21.8314 3.05847 21.4092 3.05847C20.9869 3.05847 20.6445 3.4008 20.6445 3.82309C20.6445 4.24538 20.9869 4.58771 21.4092 4.58771Z" fill="#424B75"/>
<path d="M7.64607 18.955L8.27306 18.0069C8.36312 17.839 8.38726 17.6436 8.34075 17.4588C8.29424 17.2741 8.18043 17.1133 8.02162 17.0081C7.86281 16.9029 7.67043 16.8607 7.48216 16.8899C7.2939 16.9191 7.1233 17.0175 7.00379 17.1658L6.36916 18.1063C6.02149 18.6359 5.86598 19.2687 5.9286 19.899C5.99122 20.5294 6.26818 21.1192 6.71324 21.5701C6.91223 21.7676 7.03632 22.0282 7.06422 22.3072C7.09212 22.5862 7.0221 22.8663 6.86616 23.0993L6.23917 24.0474C6.12851 24.216 6.08891 24.4215 6.12901 24.6191C6.16911 24.8167 6.28565 24.9905 6.45326 25.1026C6.57853 25.1904 6.72853 25.2359 6.88145 25.2326C7.00739 25.2319 7.13122 25.2002 7.24193 25.1402C7.35265 25.0801 7.44682 24.9937 7.51609 24.8885L8.15072 23.948C8.4984 23.4185 8.6539 22.7857 8.59128 22.1553C8.52866 21.5249 8.2517 20.9351 7.80664 20.4843C7.60647 20.2877 7.48096 20.0276 7.45166 19.7485C7.42236 19.4695 7.4911 19.1889 7.64607 18.955Z" fill="#424B75"/>
<path d="M12.0424 18.955L12.6694 18.0069C12.7808 17.8392 12.8216 17.6344 12.7829 17.4369C12.7443 17.2393 12.6293 17.065 12.4629 16.9517C12.3792 16.8957 12.2852 16.8568 12.1863 16.8373C12.0875 16.8177 11.9858 16.8179 11.887 16.8378C11.7882 16.8577 11.6944 16.8969 11.6108 16.9532C11.5273 17.0095 11.4557 17.0817 11.4001 17.1658L10.7731 18.1063C10.4212 18.6344 10.2632 19.2681 10.3259 19.8997C10.3887 20.5312 10.6683 21.1214 11.1172 21.57C11.3137 21.7692 11.4355 22.0302 11.462 22.3088C11.4884 22.5874 11.418 22.8666 11.2625 23.0993L10.6355 24.0474C10.5248 24.216 10.4852 24.4214 10.5253 24.619C10.5654 24.8167 10.682 24.9905 10.8496 25.1026C10.9727 25.1888 11.1198 25.2343 11.2701 25.2325C11.3961 25.2319 11.5199 25.2001 11.6306 25.1401C11.7413 25.0801 11.8355 24.9936 11.9048 24.8885L12.5394 23.948C12.892 23.4226 13.0539 22.7923 12.9983 22.1621C12.9426 21.5319 12.6727 20.9397 12.2335 20.4842C12.0299 20.2907 11.8995 20.0326 11.8647 19.7538C11.8298 19.475 11.8926 19.1927 12.0424 18.955Z" fill="#424B75"/>
<path d="M16.2633 18.955L16.8903 18.0068C16.957 17.924 17.0057 17.8281 17.0333 17.7254C17.0609 17.6226 17.0667 17.5152 17.0504 17.4101C17.0341 17.305 16.996 17.2044 16.9387 17.1148C16.8813 17.0252 16.8058 16.9486 16.7171 16.8898C16.6285 16.831 16.5285 16.7914 16.4236 16.7735C16.3187 16.7556 16.2113 16.7597 16.1081 16.7857C16.005 16.8117 15.9083 16.8589 15.8245 16.9243C15.7406 16.9898 15.6713 17.072 15.621 17.1658L14.9863 18.1062C14.6387 18.6358 14.4832 19.2686 14.5458 19.899C14.6084 20.5293 14.8854 21.1192 15.3304 21.57C15.5281 21.7683 15.6513 22.0287 15.6792 22.3074C15.707 22.586 15.6379 22.8657 15.4833 23.0992L14.8564 24.0474C14.745 24.215 14.7042 24.4198 14.7428 24.6174C14.7815 24.8149 14.8964 24.9892 15.0628 25.1025C15.1894 25.1876 15.3385 25.2329 15.491 25.2325C15.6169 25.2319 15.7408 25.2001 15.8515 25.1401C15.9622 25.0801 16.0564 24.9936 16.1256 24.8884L16.7526 23.948C17.1045 23.4198 17.2625 22.7861 17.1998 22.1546C17.1371 21.5231 16.8574 20.9328 16.4085 20.4842C16.212 20.285 16.0902 20.024 16.0638 19.7454C16.0373 19.4669 16.1078 19.1877 16.2633 18.955Z" fill="#424B75"/>
<path d="M20.6451 18.955L21.2721 18.0069C21.3621 17.839 21.3863 17.6436 21.3398 17.4588C21.2933 17.2741 21.1795 17.1133 21.0206 17.0081C20.8618 16.9029 20.6695 16.8607 20.4812 16.8899C20.2929 16.9191 20.1223 17.0175 20.0028 17.1658L19.3682 18.1063C19.0205 18.6359 18.865 19.2687 18.9276 19.899C18.9902 20.5294 19.2672 21.1192 19.7123 21.5701C19.9113 21.7676 20.0353 22.0282 20.0632 22.3072C20.0911 22.5862 20.0211 22.8663 19.8652 23.0993L19.2382 24.0474C19.1275 24.216 19.0879 24.4215 19.128 24.6191C19.1681 24.8167 19.2847 24.9905 19.4523 25.1026C19.5775 25.1904 19.7276 25.2359 19.8805 25.2326C20.0064 25.2319 20.1302 25.2002 20.241 25.1402C20.3517 25.0801 20.4458 24.9937 20.5151 24.8885L21.1497 23.948C21.4974 23.4185 21.6529 22.7857 21.5903 22.1553C21.5277 21.5249 21.2507 20.9351 20.8057 20.4843C20.6055 20.2877 20.48 20.0276 20.4507 19.7485C20.4214 19.4695 20.4901 19.1889 20.6451 18.955Z" fill="#424B75"/>
</svg>
