<svg width="46" height="44" viewBox="0 0 46 44" fill="none" xmlns="http://www.w3.org/2000/svg">
<path d="M11.0908 22.4869H33.9016C38.937 22.4869 43.024 18.5368 43.024 13.6871C43.024 8.8375 38.9272 4.88744 33.9016 4.88744H11.6481C11.0908 1.60221 7.9034 -0.578193 4.61817 0.135592C1.67513 0.771096 -0.319474 3.587 0.0423221 6.56919C0.452975 9.91308 3.56221 12.201 6.84743 11.6535C9.31135 11.233 11.2375 9.30691 11.6579 6.84299H33.9114C37.8615 6.84299 41.0783 9.91308 41.0783 13.6872C41.0783 17.4613 37.8616 20.5315 33.9114 20.5315H11.0908C6.05546 20.5315 1.95864 24.4816 1.95864 29.3312C1.95864 34.1808 6.05537 38.1309 11.081 38.1309H26.9693L22.7846 42.3254C22.3935 42.697 22.3838 43.3227 22.7651 43.7041C23.1464 44.0854 23.7624 44.1049 24.1437 43.7236C24.1535 43.7138 24.1632 43.7041 24.1632 43.7041L30.0199 37.8474C30.4012 37.4661 30.4012 36.8501 30.0199 36.4688L24.1632 30.6023C23.7721 30.2308 23.1561 30.2405 22.7846 30.6218C22.4228 31.0031 22.4228 31.5996 22.7846 31.9809L26.9792 36.1754H11.0908C7.13095 36.1754 3.91419 33.1054 3.91419 29.3312C3.91419 25.557 7.13095 22.4869 11.0908 22.4869ZM5.86966 9.76642C3.70887 9.76642 1.95864 8.01628 1.95864 5.8554C1.95864 3.69462 3.70878 1.94439 5.86966 1.94439C8.03044 1.94439 9.78067 3.69453 9.78067 5.8554C9.78067 8.01619 8.03044 9.76642 5.86966 9.76642Z" fill="#424B75"/>
<path d="M40.0911 31.2766C36.8547 31.2766 34.2246 33.9067 34.2246 37.1431C34.2246 40.3795 36.8547 43.0096 40.0911 43.0096C43.3275 43.0096 45.9576 40.3795 45.9576 37.1431C45.9576 33.9067 43.3373 31.2864 40.0911 31.2766ZM40.0911 41.0541C37.9303 41.0541 36.1801 39.304 36.1801 37.1431C36.1801 34.9822 37.9302 33.2321 40.0911 33.2321C42.252 33.2321 44.0021 34.9822 44.0021 37.1431C44.0021 39.304 42.252 41.0541 40.0911 41.0541Z" fill="#424B75"/>
</svg>
