<svg width="22" height="14" viewBox="0 0 22 14" fill="none" xmlns="http://www.w3.org/2000/svg">
<path d="M19.768 4.57764e-05H1.60033C0.716465 4.57764e-05 0 0.71651 0 1.60037V12.3997C0 13.2835 0.716465 14 1.60033 14H19.768C20.6518 14 21.3683 13.2835 21.3683 12.3997V1.60037C21.3683 0.71651 20.6518 4.57764e-05 19.768 4.57764e-05Z" fill="#41479B"/>
<path d="M21.3461 1.33581C21.22 0.577946 20.5617 0 19.768 0H19.3516L12.5263 4.47178V4.17121e-05H8.84206V4.47182L2.01672 4.17121e-05H1.60033C0.806654 4.17121e-05 0.148284 0.577946 0.0221613 1.33585L5.85579 5.15794H0V8.84214H5.85579L0.0221613 12.6641C0.148284 13.422 0.806654 14 1.60033 14H2.01672L8.84206 9.52818V14H12.5263V9.52818L19.3516 14H19.768C20.5617 14 21.22 13.4221 21.3461 12.6641L15.5125 8.84206H21.3683V5.15786H15.5125L21.3461 1.33581Z" fill="#F5F5F5"/>
<path d="M11.7894 4.57764e-05H9.57889V5.89474H0V8.10527H9.57889V14H11.7894V8.10527H21.3683V5.89474H11.7894V4.57764e-05Z" fill="#FF4B55"/>
<path d="M1.03454 13.8968L8.82158 8.84212H7.46819L0.384766 13.4401C0.558091 13.6424 0.780831 13.8009 1.03454 13.8968Z" fill="#FF4B55"/>
<path d="M14.4564 8.84212H13.103L20.6452 13.7378C20.8563 13.5992 21.0324 13.412 21.158 13.1922L14.4564 8.84212Z" fill="#FF4B55"/>
<path d="M0.168945 0.884799L6.7518 5.15792H8.10519L0.645809 0.315826C0.445523 0.464904 0.28163 0.659806 0.168945 0.884799Z" fill="#FF4B55"/>
<path d="M13.8797 5.15792L20.9762 0.551417C20.8009 0.349795 20.5764 0.192204 20.321 0.098175L12.5264 5.15792H13.8797Z" fill="#FF4B55"/>
</svg>
