<svg width="27" height="24" viewBox="0 0 27 24" fill="none" xmlns="http://www.w3.org/2000/svg">
<path fill-rule="evenodd" clip-rule="evenodd" d="M0.00206602 6.4C0.00206602 2.8712 2.82875 0 6.30158 0C9.77441 0 12.6011 2.8712 12.6011 6.4C12.632 7.56051 12.3149 8.70742 11.6823 9.72293C11.0497 10.7384 10.1243 11.586 9.00137 12.1784V21.6C9.00137 22.2365 8.71693 22.847 8.21062 23.2971C7.70431 23.7471 7.01761 24 6.30158 24C5.58555 24 4.89885 23.7471 4.39254 23.2971C3.88623 22.847 3.60179 22.2365 3.60179 21.6V12.1784C2.47882 11.586 1.5535 10.7384 0.920876 9.72293C0.288251 8.70742 -0.0288774 7.56051 0.00206602 6.4ZM7.3534 11.2298C7.4524 11.0982 7.59309 10.9957 7.75766 10.9352C8.70631 10.5244 9.49955 9.87659 10.0402 9.07103C10.5808 8.26547 10.8453 7.3372 10.8012 6.4C10.8012 3.7528 8.78269 1.6 6.30158 1.6C3.82047 1.6 1.80193 3.7528 1.80193 6.4C1.75789 7.3372 2.02239 8.26547 2.563 9.07103C3.10361 9.87659 3.89685 10.5244 4.84549 10.9352C5.01006 10.9957 5.15075 11.0982 5.24976 11.2298C5.34876 11.3614 5.40162 11.5161 5.40165 11.6744V21.6C5.40165 21.8122 5.49646 22.0157 5.66523 22.1657C5.834 22.3157 6.0629 22.4 6.30158 22.4C6.54025 22.4 6.76915 22.3157 6.93792 22.1657C7.10669 22.0157 7.20151 21.8122 7.20151 21.6V11.6744C7.20154 11.5161 7.2544 11.3614 7.3534 11.2298ZM25.4636 0.234315C25.6324 0.0842854 25.8613 0 26.1 0C26.3386 0 26.5675 0.0842854 26.7363 0.234315C26.9051 0.384344 26.9999 0.587827 26.9999 0.8V8.8C26.9987 9.7218 26.6401 10.6151 25.9843 11.3291C25.3286 12.0432 24.4159 12.5345 23.4002 12.72V21.6C23.4002 22.2365 23.1157 22.847 22.6094 23.2971C22.1031 23.7471 21.4164 24 20.7004 24C19.9843 24 19.2976 23.7471 18.7913 23.2971C18.285 22.847 18.0006 22.2365 18.0006 21.6V12.72C16.9849 12.5345 16.0722 12.0432 15.4164 11.3291C14.7607 10.6151 14.402 9.7218 14.4009 8.8V0.8C14.4009 0.587827 14.4957 0.384344 14.6644 0.234315C14.8332 0.0842854 15.0621 0 15.3008 0C15.5395 0 15.7684 0.0842854 15.9371 0.234315C16.1059 0.384344 16.2007 0.587827 16.2007 0.8V8.8C16.2007 9.43652 16.4852 10.047 16.9915 10.4971C17.4978 10.9471 18.1845 11.2 18.9005 11.2C19.1392 11.2 19.3681 11.2843 19.5369 11.4343C19.7056 11.5843 19.8004 11.7878 19.8004 12V21.6C19.8004 21.8122 19.8953 22.0157 20.064 22.1657C20.2328 22.3157 20.4617 22.4 20.7004 22.4C20.939 22.4 21.1679 22.3157 21.3367 22.1657C21.5055 22.0157 21.6003 21.8122 21.6003 21.6V12C21.6003 11.7878 21.6951 11.5843 21.8639 11.4343C22.0327 11.2843 22.2616 11.2 22.5002 11.2C23.2163 11.2 23.903 10.9471 24.4093 10.4971C24.9156 10.047 25.2 9.43652 25.2 8.8V0.8C25.2 0.587827 25.2948 0.384344 25.4636 0.234315ZM18.9006 9.6C19.1393 9.6 19.3682 9.51571 19.537 9.36568C19.7058 9.21566 19.8006 9.01217 19.8006 8.8V0.8C19.8006 0.587827 19.7058 0.384344 19.537 0.234315C19.3682 0.0842854 19.1393 0 18.9006 0C18.662 0 18.4331 0.0842854 18.2643 0.234315C18.0955 0.384344 18.0007 0.587827 18.0007 0.8V8.8C18.0007 9.01217 18.0955 9.21566 18.2643 9.36568C18.4331 9.51571 18.662 9.6 18.9006 9.6ZM23.1368 9.36568C22.9681 9.51571 22.7392 9.6 22.5005 9.6C22.2618 9.6 22.0329 9.51571 21.8641 9.36568C21.6954 9.21566 21.6006 9.01217 21.6006 8.8V0.8C21.6006 0.587827 21.6954 0.384344 21.8641 0.234315C22.0329 0.0842854 22.2618 0 22.5005 0C22.7392 0 22.9681 0.0842854 23.1368 0.234315C23.3056 0.384344 23.4004 0.587827 23.4004 0.8V8.8C23.4004 9.01217 23.3056 9.21566 23.1368 9.36568Z" fill="#424B75"/>
</svg>
