<svg width="30" height="30" viewBox="0 0 30 30" fill="none" xmlns="http://www.w3.org/2000/svg">
<path fill-rule="evenodd" clip-rule="evenodd" d="M22.4471 0H7.48238C3.36743 0 0 3.36743 0 7.48238V22.4479C0 26.5617 3.36743 29.9302 7.48238 29.9302H22.4471C26.5621 29.9302 29.9295 26.5617 29.9295 22.4479V7.48238C29.9295 3.36743 26.5621 0 22.4471 0ZM27.4353 22.4479C27.4353 25.1976 25.1984 27.436 22.4471 27.436H7.48238C4.73224 27.436 2.49425 25.1976 2.49425 22.4479V7.48238C2.49425 4.73187 4.73224 2.49425 7.48238 2.49425H22.4471C25.1984 2.49425 27.4353 4.73187 27.4353 7.48238V22.4479ZM23.0719 8.72935C24.105 8.72935 24.9425 7.89185 24.9425 6.85875C24.9425 5.82565 24.105 4.98816 23.0719 4.98816C22.0388 4.98816 21.2013 5.82565 21.2013 6.85875C21.2013 7.89185 22.0388 8.72935 23.0719 8.72935ZM7.48256 14.9647C7.48256 10.8318 10.8317 7.48236 14.9649 7.48236C19.097 7.48236 22.4473 10.8318 22.4473 14.9647C22.4473 19.0961 19.097 22.4478 14.9649 22.4478C10.8317 22.4478 7.48256 19.0961 7.48256 14.9647ZM9.97681 14.9647C9.97681 17.7201 12.2103 19.9536 14.9649 19.9536C17.7196 19.9536 19.9531 17.7201 19.9531 14.9647C19.9531 12.2093 17.7196 9.97661 14.9649 9.97661C12.2103 9.97661 9.97681 12.2093 9.97681 14.9647Z" fill="url(#paint0_linear_51_382)"/>
<defs>
<linearGradient id="paint0_linear_51_382" x1="30" y1="-1.75533e-06" x2="-9.18922e-07" y2="30" gradientUnits="userSpaceOnUse">
<stop stop-color="#B25EFB"/>
<stop offset="0.46875" stop-color="#DD1332"/>
<stop offset="1" stop-color="#EFC815"/>
</linearGradient>
</defs>
</svg>
