<svg width="30" height="31" viewBox="0 0 30 31" fill="none" xmlns="http://www.w3.org/2000/svg">
<path fill-rule="evenodd" clip-rule="evenodd" d="M22.4471 0.534912H7.48238C3.36743 0.534912 0 3.90235 0 8.01729V22.9828C0 27.0966 3.36743 30.4651 7.48238 30.4651H22.4471C26.5621 30.4651 29.9295 27.0966 29.9295 22.9828V8.01729C29.9295 3.90235 26.5621 0.534912 22.4471 0.534912ZM27.4353 22.9828C27.4353 25.7325 25.1984 27.9709 22.4471 27.9709H7.48238C4.73224 27.9709 2.49425 25.7325 2.49425 22.9828V8.01729C2.49425 5.26678 4.73224 3.02916 7.48238 3.02916H22.4471C25.1984 3.02916 27.4353 5.26678 27.4353 8.01729V22.9828ZM23.0719 9.26426C24.105 9.26426 24.9425 8.42677 24.9425 7.39367C24.9425 6.36056 24.105 5.52307 23.0719 5.52307C22.0388 5.52307 21.2013 6.36056 21.2013 7.39367C21.2013 8.42677 22.0388 9.26426 23.0719 9.26426ZM7.48256 15.4997C7.48256 11.3668 10.8317 8.0173 14.9649 8.0173C19.097 8.0173 22.4473 11.3668 22.4473 15.4997C22.4473 19.6311 19.097 22.9828 14.9649 22.9828C10.8317 22.9828 7.48256 19.6311 7.48256 15.4997ZM9.97681 15.4997C9.97681 18.2551 12.2103 20.4885 14.9649 20.4885C17.7196 20.4885 19.9531 18.2551 19.9531 15.4997C19.9531 12.7443 17.7196 10.5116 14.9649 10.5116C12.2103 10.5116 9.97681 12.7443 9.97681 15.4997Z" fill="white"/>
</svg>
