<svg width="548" height="6" viewBox="0 0 548 6" fill="none" xmlns="http://www.w3.org/2000/svg">
<path d="M0.4 3C0.4 3.88366 1.11634 4.6 2 4.6C2.88366 4.6 3.6 3.88366 3.6 3C3.6 2.11634 2.88366 1.4 2 1.4C1.11634 1.4 0.4 2.11634 0.4 3ZM547.212 3.21218C547.329 3.09502 547.329 2.90507 547.212 2.78792L545.303 0.878727C545.186 0.76157 544.996 0.76157 544.879 0.878727C544.762 0.995884 544.762 1.18583 544.879 1.30299L546.576 3.00005L544.879 4.6971C544.762 4.81426 544.762 5.00421 544.879 5.12137C544.996 5.23853 545.186 5.23853 545.303 5.12137L547.212 3.21218ZM2 3.3L547 3.30005L547 2.70005L2 2.7L2 3.3Z" fill="#C5C5C5"/>
</svg>
