<svg width="17" height="19" viewBox="0 0 17 19" fill="none" xmlns="http://www.w3.org/2000/svg">
<path fill-rule="evenodd" clip-rule="evenodd" d="M8.03607 0C10.1826 0 12.2006 0.835892 13.7184 2.35371C15.2362 3.87156 16.0721 5.88958 16.0721 8.03603C16.0721 12.3782 11.9665 15.9899 9.7607 17.9302L9.76062 17.9303L9.75864 17.932C9.45295 18.2009 9.18894 18.4332 8.9785 18.6298C8.71424 18.8766 8.37517 19 8.03603 19C7.69696 19 7.35782 18.8766 7.0936 18.6298C6.8827 18.4328 6.618 18.1999 6.31148 17.9303C4.10572 15.99 0 12.3783 0 8.03603C0 5.88958 0.835892 3.87156 2.35371 2.35371C3.87149 0.835892 5.88958 0 8.03607 0ZM8.21872 17.8165C8.44175 17.6082 8.71224 17.3702 9.02548 17.0946C11.0992 15.2705 14.9591 11.875 14.959 8.03607C14.959 4.21868 11.8534 1.11303 8.03599 1.11303C4.21857 1.11303 1.11291 4.21868 1.11291 8.03607C1.11291 11.875 4.97286 15.2705 7.04654 17.0946L7.0482 17.0961C7.36074 17.371 7.63071 17.6085 7.8533 17.8165C7.9558 17.9121 8.11626 17.9121 8.21872 17.8165ZM4.4945 7.73242C4.4945 5.77968 6.08316 4.19106 8.0359 4.19106C9.98864 4.19106 11.5773 5.77968 11.5773 7.73242C11.5773 9.68516 9.98864 11.2738 8.0359 11.2738C6.08316 11.2738 4.4945 9.68516 4.4945 7.73242ZM5.60749 7.73239C5.60749 9.07137 6.69687 10.1608 8.0359 10.1608C9.37492 10.1608 10.4643 9.07137 10.4643 7.73239C10.4643 6.3934 9.37492 5.30401 8.0359 5.30401C6.69687 5.30401 5.60749 6.3934 5.60749 7.73239Z" fill="#424B75"/>
</svg>
