<svg width="113" height="28" viewBox="0 0 113 28" fill="none" xmlns="http://www.w3.org/2000/svg">
<g clip-path="url(#clip0_21_261)">
<path d="M37.8771 12.6083L39.9841 7.72611L38.1453 3.39576L38.1096 3.31182H38.2021H38.9416H38.9827L38.9986 3.34951L40.5094 6.97002L42.0203 3.34951L42.0361 3.31182H42.0773H42.8168H42.9092L42.8736 3.39576L41.0349 7.7259L43.1709 12.6089L47.1379 3.27649L47.1537 3.23902H47.1946H48.0229H48.1162L48.0795 3.3236L43.5833 13.6616L43.5672 13.6984H43.5267H42.8316H42.7909L42.7748 13.6616L40.524 8.47706L38.2589 13.6618L38.2428 13.6984H38.2021H37.5069H37.4665L37.4504 13.6616L32.9687 3.3236L32.9322 3.23902H33.0255H33.839H33.8799L33.8958 3.27627L37.8771 12.6083V12.6083ZM16.2818 2.64952C16.0486 2.83603 15.9357 2.84331 16.0077 2.96729C16.0815 3.09448 16.1045 3.14887 15.9203 3.15786C15.736 3.16707 15.6068 3.13988 15.6669 3.23045C15.7267 3.32125 15.8281 3.43002 15.5101 3.47992C15.1923 3.52981 14.3305 3.83837 13.8098 3.87927C13.289 3.91995 13.0815 4.13323 13.0126 4.3011C12.9434 4.46898 12.2935 4.75013 12.123 4.49618C11.9527 4.24222 11.7451 3.85207 11.8465 3.6388C12.3387 2.60348 11.2333 3.3827 10.939 2.96922C12.6676 2.47286 14.7307 2.20263 16.2818 2.64952L16.2818 2.64952ZM19.3498 3.56621C23.3483 5.19488 25.4606 9.19162 26.0452 11.4522C25.3427 11.9993 23.9884 13.1864 23.8414 12.3897C23.6941 11.5927 23.4379 12.4228 23.18 11.7695C22.9218 11.1164 21.8527 10.5357 22.6268 11.5156C23.4012 12.4954 22.8461 12.0629 23.2145 12.571C23.5832 13.0791 23.9151 13.3695 24.5048 13.1879C25.0947 13.0066 24.9842 13.5509 24.4681 14.0952C23.9519 14.6397 22.9198 15.6194 22.9566 16.8534C22.9935 18.0874 23.362 18.0146 22.5511 18.6679C21.74 19.3212 22.3667 19.5026 21.8138 20.0107C21.2608 20.5189 21.4083 21.0996 20.413 21.5349C19.4177 21.9705 19.7494 21.9705 19.4544 21.027C19.1595 20.0833 18.4223 19.6116 18.4961 18.4502C18.5698 17.2889 19.049 16.4179 18.4591 15.801C17.8694 15.184 18.4961 14.0226 17.6112 14.0952C16.7264 14.1678 15.6206 14.9299 14.7727 13.5145C13.9248 12.0993 13.4454 10.9378 14.3303 10.3935C15.2151 9.84921 15.1781 9.01453 15.4361 8.79677C15.6943 8.57899 16.3579 9.12331 17.8324 8.72417C19.307 8.32482 18.3486 8.90554 19.307 9.34108C20.2655 9.77662 20.5605 9.41367 20.7817 9.26849C21.0027 9.12331 22.7723 8.86914 21.6295 8.43382C20.3271 7.93746 19.939 8.22311 19.7783 7.43233C19.631 6.70664 17.8153 6.99786 18.4358 7.2606C19.0566 7.52312 19.6019 7.85309 19.3439 7.90748C19.086 7.96187 18.8574 8.28029 18.6612 8.21134C18.4652 8.14217 19.178 7.99828 18.791 7.7441C18.4038 7.49014 18.1459 7.54475 18.0167 7.29058C17.8877 7.03662 17.8694 6.98201 17.8694 6.98201C17.8694 6.98201 17.427 6.72805 16.8739 7.52655C16.321 8.32482 15.5468 8.61518 15.3256 7.78051C15.1044 6.94583 17.3163 7.01842 16.3947 6.4741C15.4731 5.92978 17.2795 5.7118 17.7219 5.67561C18.1641 5.63942 19.307 4.44179 18.5328 4.62316C17.7587 4.80453 17.427 4.91352 16.7634 4.47798C16.1102 4.04929 18.6714 4.21845 19.3498 3.56621L19.3498 3.56621ZM2.49894 11.9372C3.11928 9.02909 6.67712 4.31201 9.7101 3.55743C10.4842 3.55743 10.1923 4.65035 10.5978 5.33985C11.0032 6.02935 10.487 6.4287 8.79133 6.68266C7.0956 6.93683 7.35379 8.06166 6.54269 8.42482C5.73159 8.78756 5.28917 9.76741 5.03121 9.33187C4.77324 8.89655 3.96214 8.96914 3.44598 10.3845C2.92983 11.7997 3.52385 11.5648 3.94256 11.4503C4.36127 11.3359 4.25687 11.9261 4.66231 12.5792C5.06775 13.2325 5.98978 12.8886 6.87441 12.6346C7.75925 12.3804 9.04953 13.0338 9.30749 13.7233C9.56567 14.4128 9.30749 14.9573 11.0769 15.5742C12.8464 16.1911 12.2935 16.4089 12.0355 17.171C11.7773 17.9333 11.6668 18.3686 11.1507 19.0945C10.6347 19.8202 11.4089 20.2557 10.6347 20.6187C9.8604 20.9816 8.97578 21.6349 9.01254 22.3244C9.04952 23.0139 9.63941 24.1754 8.57012 23.3769C7.50105 22.5784 7.13259 21.163 6.98512 19.1307C6.83764 17.0984 6.28451 18.1508 5.51039 17.2797C4.73626 16.4089 4.79173 15.2656 5.10495 14.6849C5.41838 14.1044 5.63959 13.4329 4.99445 13.3603C4.34931 13.2877 4.07285 13.1245 3.81467 12.4712C3.5567 11.8179 3.46447 12.2535 2.89307 12.1627C2.68992 12.1306 2.56593 12.0637 2.49894 11.9372L2.49894 11.9372ZM33.0069 23.7512H80.1231V23.7544H80.1531V23.7418C80.4733 23.7259 80.7489 23.6036 80.9816 23.3767C81.2313 23.133 81.3562 22.8341 81.3562 22.4822C81.3562 22.1388 81.2335 21.8441 80.9836 21.6005C80.8502 21.4668 80.5788 21.2739 80.1698 21.0154C79.6874 20.7589 79.3537 20.5405 79.1684 20.3583C78.8778 20.072 78.7336 19.7287 78.7336 19.3279C78.7336 18.921 78.8778 18.5754 79.1684 18.2872C79.4223 18.0337 79.7244 17.8917 80.0702 17.8611C80.0702 17.8495 81.7842 17.8549 81.9471 17.8549V18.3973C81.3559 18.3973 80.7565 18.3949 80.2525 18.3911C80.0006 18.3894 79.7455 18.5078 79.5647 18.6836C79.3838 18.8596 79.2935 19.0737 79.2935 19.3279C79.2935 19.5761 79.3838 19.7881 79.5647 19.966C79.6702 20.0699 79.894 20.2268 80.2342 20.4388C80.7726 20.7292 81.1558 20.9857 81.382 21.2082C81.7394 21.5643 81.9182 21.9882 81.9182 22.4822C81.9182 22.9867 81.7394 23.4169 81.382 23.7711C81.0247 24.125 80.5918 24.3009 80.0815 24.3009C80.0224 24.3009 79.9645 24.2985 79.9073 24.2938H33.0067V23.7512L33.0069 23.7512ZM14.3222 0C18.249 0 21.8044 1.56722 24.378 4.1008C26.9511 6.63419 28.5433 10.1343 28.5433 14.0002C28.5433 17.8662 26.9512 21.3663 24.378 23.8997C21.8044 26.4331 18.249 28.0003 14.3222 28.0003C10.3955 28.0003 6.8398 26.4333 4.26643 23.8997C1.69282 21.3663 0.101074 17.8659 0.101074 14.0002C0.101074 10.1346 1.69282 6.63417 4.26643 4.1008C6.83982 1.56721 10.3955 0 14.3222 0ZM23.705 4.76332C21.3039 2.39933 17.9864 0.93725 14.3222 0.93725C10.6578 0.93725 7.34029 2.39933 4.9392 4.76332C2.53808 7.1269 1.05291 10.3928 1.05291 14.0002C1.05291 17.6077 2.53808 20.8736 4.9392 23.2372C7.34031 25.6012 10.6578 27.0632 14.3222 27.0632C17.9864 27.0632 21.3039 25.601 23.705 23.2372C26.1059 20.8734 27.5913 17.6075 27.5913 14.0002C27.5913 10.3928 26.1059 7.12688 23.705 4.76332ZM84.5064 18.0539V15.4572H85.0726V18.0539H86.3344V18.6135H85.0726V24.1524H84.5064V18.6135H83.2446V18.0539H84.5064ZM90.404 24.2393C89.631 24.2393 89.013 24.0147 88.5565 23.5631C88.0979 23.1117 87.8611 22.5415 87.8482 21.8548V18.0539H88.4166V21.8059C88.4166 22.3231 88.6082 22.764 88.9915 23.1286C89.3704 23.4954 89.8376 23.6798 90.3975 23.6798C90.9186 23.6798 91.3708 23.4973 91.7497 23.1308C92.1308 22.764 92.3224 22.3231 92.3224 21.8059V18.0539H92.8889V21.8548C92.8758 22.5415 92.6411 23.1117 92.1826 23.5631C91.7239 24.0147 91.1318 24.2393 90.404 24.2393V24.2393ZM101.469 24.1524H100.901V22.9104C100.791 23.0545 100.673 23.1944 100.541 23.3258C99.8653 23.9935 99.0471 24.3262 98.0887 24.3262C97.1327 24.3262 96.3166 23.9935 95.6406 23.3258C94.9624 22.6601 94.6242 21.8567 94.6242 20.9177C94.6242 19.9723 94.9624 19.1668 95.6406 18.5013C96.3166 17.8355 97.1327 17.5008 98.0887 17.5008C99.0471 17.5008 99.8653 17.8355 100.541 18.5013C100.673 18.6327 100.791 18.7726 100.901 18.9167V14.215H101.469V24.1524V24.1524ZM100.901 21.4689V20.3644C100.795 19.8175 100.533 19.3385 100.113 18.9231C99.553 18.3719 98.8789 18.0985 98.0887 18.0985C97.2963 18.0985 96.6225 18.3719 96.0626 18.9231C95.5027 19.4743 95.2249 20.1377 95.2249 20.9177C95.2249 21.6957 95.5027 22.359 96.0626 22.9083C96.6225 23.4552 97.2963 23.7308 98.0887 23.7308C98.8789 23.7308 99.553 23.4552 100.113 22.904C100.533 22.4905 100.795 22.0115 100.901 21.4689V21.4689ZM104.055 18.054V24.1524H103.487V18.054H104.055ZM103.771 15.894C103.926 15.894 104.06 15.9469 104.172 16.055C104.284 16.161 104.34 16.2925 104.34 16.4452C104.34 16.6019 104.284 16.7355 104.172 16.8437C104.06 16.9516 103.926 17.0047 103.771 17.0047C103.616 17.0047 103.483 16.9516 103.371 16.8437C103.259 16.7355 103.203 16.6019 103.203 16.4452C103.203 16.2925 103.259 16.161 103.371 16.055C103.483 15.9469 103.616 15.894 103.771 15.894ZM109.159 17.5008C110.117 17.5008 110.935 17.8355 111.609 18.5013C112.285 19.1668 112.621 19.9723 112.621 20.9177C112.621 21.8567 112.285 22.6601 111.609 23.3258C110.935 23.9935 110.117 24.3262 109.159 24.3262C108.205 24.3262 107.388 23.9935 106.71 23.3258C106.034 22.6601 105.696 21.8567 105.696 20.9177C105.696 19.9723 106.034 19.1668 106.71 18.5013C107.388 17.8355 108.205 17.5008 109.159 17.5008ZM109.159 18.0985C108.368 18.0985 107.692 18.3719 107.134 18.9231C106.575 19.4743 106.295 20.1376 106.295 20.9177C106.295 21.6957 106.575 22.359 107.134 22.9083C107.692 23.4552 108.368 23.7307 109.159 23.7307C109.949 23.7307 110.625 23.4552 111.185 22.9083C111.742 22.359 112.022 21.6957 112.022 20.9177C112.022 20.1376 111.742 19.4743 111.185 18.9231C110.625 18.3719 109.949 18.0985 109.159 18.0985ZM52.6968 13.7833C53.069 13.781 53.424 13.7347 53.7642 13.6426C54.1044 13.5504 54.4197 13.4193 54.7082 13.2519C54.9966 13.0821 55.248 12.8829 55.4625 12.6525C55.677 12.4219 55.8447 12.1694 55.9654 11.8904L55.0927 11.6575C54.9696 11.9318 54.7895 12.1694 54.5481 12.3759C54.3064 12.5797 54.0304 12.7399 53.7148 12.8514C53.3994 12.9656 53.069 13.0238 52.7262 13.0262C52.354 13.0238 52.0041 12.9534 51.6763 12.815C51.3459 12.6744 51.0524 12.4778 50.7962 12.2253C50.5398 11.9729 50.3303 11.6744 50.1726 11.3298C50.0147 10.9877 49.9186 10.6116 49.8866 10.2014H56.4683C56.4756 10.1675 56.483 10.114 56.488 10.0365C56.4954 9.96111 56.4978 9.8836 56.4978 9.80822C56.493 9.28403 56.3967 8.78896 56.2118 8.32302C56.0269 7.85728 55.7657 7.44209 55.4281 7.08299C55.0903 6.72389 54.6886 6.43996 54.2251 6.2361C53.7591 6.0299 53.2465 5.9254 52.682 5.92069C52.12 5.92305 51.6047 6.02733 51.1364 6.23118C50.6681 6.43503 50.2587 6.71661 49.9138 7.07335C49.5686 7.43245 49.2999 7.84743 49.1101 8.31574C48.9202 8.78425 48.824 9.2866 48.8216 9.82278C48.824 10.3665 48.9202 10.8735 49.1101 11.3517C49.3023 11.8273 49.5686 12.2472 49.9162 12.6112C50.2637 12.9752 50.6705 13.2615 51.1438 13.4679C51.6145 13.6741 52.1322 13.7784 52.6968 13.7833H52.6968ZM49.857 9.4442C49.884 9.04142 49.9753 8.67248 50.1306 8.33758C50.2835 8.00268 50.488 7.71403 50.742 7.4665C50.9959 7.22132 51.2891 7.03203 51.6195 6.89605C51.9473 6.76265 52.3023 6.69477 52.682 6.69242C53.0616 6.69477 53.4166 6.76029 53.7444 6.8937C54.0748 7.0271 54.368 7.21639 54.6244 7.46157C54.8809 7.70675 55.0879 7.99797 55.2456 8.33287C55.4033 8.66777 55.5021 9.03907 55.5364 9.4442H49.857L49.857 9.4442ZM103.83 13.7833C104.202 13.781 104.557 13.7347 104.897 13.6426C105.237 13.5504 105.553 13.4193 105.841 13.2519C106.13 13.0821 106.381 12.8829 106.595 12.6525C106.81 12.4219 106.977 12.1694 107.098 11.8904L106.225 11.6575C106.102 11.9318 105.922 12.1694 105.681 12.3759C105.439 12.5797 105.163 12.7399 104.848 12.8514C104.532 12.9656 104.202 13.0238 103.859 13.0262C103.487 13.0238 103.137 12.9534 102.809 12.815C102.479 12.6744 102.185 12.4778 101.929 12.2253C101.673 11.9729 101.463 11.6744 101.305 11.3298C101.147 10.9877 101.052 10.6116 101.019 10.2014H107.601C107.608 10.1675 107.616 10.114 107.621 10.0365C107.628 9.96111 107.631 9.8836 107.631 9.80822C107.626 9.28403 107.53 8.78896 107.345 8.32302C107.16 7.85728 106.898 7.44209 106.561 7.08299C106.223 6.72389 105.821 6.43996 105.358 6.2361C104.892 6.0299 104.379 5.9254 103.815 5.92069C103.253 5.92305 102.737 6.02733 102.269 6.23118C101.801 6.43503 101.391 6.71661 101.047 7.07335C100.701 7.43245 100.433 7.84743 100.243 8.31574C100.053 8.78425 99.957 9.2866 99.9544 9.82278C99.957 10.3665 100.053 10.8735 100.243 11.3517C100.435 11.8273 100.701 12.2472 101.049 12.6112C101.396 12.9752 101.803 13.2615 102.277 13.4679C102.747 13.6741 103.265 13.7784 103.83 13.7833H103.83ZM100.99 9.4442C101.017 9.04142 101.108 8.67248 101.263 8.33758C101.416 8.00268 101.621 7.71403 101.875 7.4665C102.129 7.22132 102.422 7.03203 102.752 6.89605C103.08 6.76265 103.435 6.69477 103.815 6.69242C104.194 6.69477 104.549 6.76029 104.877 6.8937C105.208 7.0271 105.501 7.21639 105.757 7.46157C106.014 7.70675 106.221 7.99797 106.378 8.33287C106.536 8.66777 106.635 9.03907 106.669 9.4442H100.99L100.99 9.4442ZM62.2766 13.79C62.0781 13.8247 61.8725 13.8426 61.66 13.8437H61.6593C61.4525 13.8426 61.25 13.8236 61.0527 13.787C60.8543 13.7501 60.6603 13.6957 60.4715 13.6238H60.4713C60.2823 13.551 60.1022 13.4653 59.9312 13.366C59.7598 13.2664 59.5976 13.1536 59.4436 13.0266C59.2909 12.9011 59.1504 12.7651 59.0225 12.6193C58.9407 12.526 58.8641 12.4287 58.793 12.3279V13.6377V13.6983H58.7312H58.0656H58.0039V13.6377V3.00851V2.94769H58.0656H58.8052H58.8667V3.00851V7.51916C58.9548 7.4001 59.0464 7.28597 59.1417 7.17677V7.17655C59.278 7.02066 59.4222 6.87484 59.5749 6.73951H59.5751C59.7287 6.6044 59.8892 6.48406 60.0569 6.37892C60.2253 6.27378 60.4024 6.18277 60.5885 6.1074L60.5883 6.10718C60.7745 6.03053 60.969 5.97293 61.1723 5.93417C61.3746 5.89562 61.5863 5.87592 61.8073 5.87464H61.8079C62.0313 5.87592 62.2451 5.89562 62.4498 5.93353C62.6549 5.97164 62.8511 6.02796 63.0384 6.10226H63.0386C63.2239 6.17614 63.3999 6.26457 63.5658 6.36735C63.7311 6.46971 63.8869 6.58662 64.0328 6.71788C64.179 6.84807 64.3141 6.98854 64.4376 7.13908C64.5605 7.28854 64.6723 7.4485 64.7722 7.61809H64.7719C64.8735 7.78832 64.9623 7.96391 65.0386 8.1442C65.1152 8.32536 65.1796 8.51251 65.232 8.70544C65.3368 9.09152 65.3895 9.48273 65.3895 9.88101L65.389 9.88144C65.3879 10.0951 65.372 10.3046 65.3412 10.5091C65.3105 10.7114 65.265 10.9101 65.2041 11.105C65.1426 11.3005 65.0682 11.4891 64.9812 11.6705C64.8951 11.8499 64.7959 12.0227 64.6838 12.1883V12.1885C64.5729 12.3529 64.4502 12.5082 64.3165 12.6534C64.1829 12.7983 64.0389 12.933 63.8849 13.0561L63.8847 13.0564C63.7292 13.1799 63.5661 13.2898 63.3955 13.3857H63.3953C63.2243 13.4818 63.0451 13.5645 62.8572 13.6336C62.6699 13.703 62.4763 13.7551 62.2766 13.79V13.79ZM61.1856 13.0426C61.2963 13.0591 61.4049 13.0673 61.5119 13.0673V13.0677C61.6878 13.0664 61.8579 13.051 62.0219 13.0212C62.1857 12.9917 62.3436 12.9476 62.4952 12.8895L62.4957 12.8893C62.6479 12.8322 62.793 12.7636 62.9303 12.684C63.0682 12.6041 63.1996 12.5122 63.3233 12.4097C63.4462 12.3065 63.5613 12.1953 63.6676 12.0763C63.7738 11.9574 63.8714 11.8307 63.9595 11.6951C64.0481 11.5602 64.1264 11.4206 64.1942 11.2763C64.2625 11.1315 64.3208 10.9816 64.3691 10.827H64.3689C64.4163 10.6724 64.4522 10.5159 64.4759 10.3581C64.4996 10.2011 64.5116 10.0418 64.5116 9.88102H64.512C64.5107 9.67032 64.4924 9.46368 64.4572 9.26133C64.422 9.05897 64.3698 8.86112 64.3008 8.66819C64.2321 8.47547 64.1483 8.29303 64.0498 8.12066C63.9517 7.94914 63.8384 7.78768 63.7103 7.63651L63.7101 7.63586C63.5832 7.48383 63.4445 7.3485 63.2937 7.22902C63.1434 7.11017 62.9803 7.00675 62.805 6.91874C62.6305 6.83095 62.4461 6.76457 62.2527 6.72003C62.0589 6.67528 61.856 6.65194 61.645 6.65086C61.4834 6.65194 61.3274 6.66564 61.1765 6.69241C61.026 6.71896 60.8804 6.75879 60.7399 6.81189L60.7397 6.81211C60.5988 6.86435 60.4641 6.92645 60.3358 6.99797C60.2064 7.07035 60.0826 7.15257 59.9649 7.24443L59.9647 7.24465C59.8457 7.33694 59.7333 7.43544 59.628 7.54015C59.523 7.64443 59.4233 7.7562 59.3296 7.87505V7.87483C59.2387 7.99153 59.1543 8.11252 59.0764 8.23714C58.9996 8.36027 58.9298 8.48575 58.8667 8.61315V11.1011C58.88 11.2082 58.9041 11.3125 58.9396 11.414C58.9755 11.5166 59.0229 11.6166 59.0823 11.7136L59.0825 11.714C59.141 11.8114 59.2086 11.9058 59.285 11.9964C59.362 12.0876 59.4468 12.1744 59.5388 12.2555L59.5393 12.2557C59.6324 12.339 59.7305 12.4165 59.8329 12.4881C59.9356 12.5596 60.043 12.6257 60.1555 12.6863C60.2695 12.7467 60.385 12.8011 60.5011 12.8487C60.6153 12.8951 60.7297 12.9354 60.8437 12.9679V12.9681C60.9594 13.0009 61.0732 13.0257 61.1856 13.0427L61.1856 13.0426ZM78.4067 8.29754C78.4458 8.60053 78.4652 8.92965 78.4639 9.28403H78.4641V13.6377V13.6983H78.4023H77.663H77.6012V13.6377V9.41507C77.6012 8.94334 77.564 8.53243 77.4892 8.18318C77.415 7.83693 77.3039 7.55128 77.1553 7.32709C77.0087 7.10589 76.8254 6.93994 76.6054 6.82988C76.3845 6.71917 76.1256 6.66436 75.8292 6.66543C75.6193 6.6665 75.4174 6.69198 75.2243 6.74123C75.0313 6.79069 74.8466 6.86414 74.6709 6.96114C74.4945 7.05857 74.3305 7.17506 74.1791 7.30974C74.0275 7.44486 73.8874 7.59968 73.7589 7.77377L73.7587 7.77419C73.6303 7.94678 73.5183 8.13372 73.4222 8.33414C73.3273 8.53264 73.2477 8.74506 73.184 8.97139V13.6377V13.6983H73.1222H72.3827H72.3211V13.6377V9.41507H72.3213C72.3224 8.93671 72.2859 8.52215 72.2119 8.17098C72.1386 7.82344 72.0286 7.53908 71.8826 7.31746L71.8824 7.31724C71.738 7.09733 71.5568 6.93309 71.3386 6.82496C71.1189 6.71618 70.8608 6.66308 70.5641 6.66543H70.5639C70.3594 6.6665 70.1612 6.69155 69.9698 6.73973C69.7782 6.78791 69.5938 6.85965 69.4173 6.95408C69.2399 7.05044 69.0745 7.165 68.9214 7.29797V7.29819C68.7676 7.4318 68.6256 7.58405 68.4953 7.75493H68.4955C68.3644 7.92816 68.2489 8.11595 68.1499 8.31809C68.0522 8.5168 67.97 8.73007 67.9037 8.95748V13.6377V13.6983H67.8421H67.1026H67.0408V13.6377V6.06631V6.0055H67.1026H67.783H67.8447V6.06631V7.63867C67.923 7.50805 68.0061 7.38428 68.094 7.26716C68.2262 7.09114 68.3696 6.92969 68.524 6.78258V6.78236C68.6782 6.63526 68.8411 6.50614 69.0117 6.39436C69.182 6.28258 69.3612 6.18794 69.5487 6.11C69.7364 6.03184 69.9302 5.97274 70.1295 5.93355V5.93334C70.3278 5.89415 70.5317 5.87445 70.7409 5.87445L70.7413 5.87467C70.9621 5.87595 71.1683 5.89886 71.3604 5.94319C71.5537 5.98773 71.7338 6.05389 71.9011 6.14126L71.9015 6.14147C72.0677 6.23012 72.2174 6.33569 72.3514 6.45881C72.4849 6.58151 72.603 6.72198 72.7057 6.88065H72.7059C72.8066 7.03654 72.889 7.20656 72.9539 7.38985C73.0004 7.52176 73.0376 7.66051 73.0657 7.80612C73.2286 7.52583 73.4037 7.27615 73.591 7.05688C73.813 6.79714 74.0519 6.5798 74.3072 6.40464C74.5643 6.22862 74.8388 6.09586 75.1305 6.00721C75.4207 5.91899 75.7276 5.87445 76.0508 5.87445L76.051 5.87467C76.3368 5.87595 76.5957 5.91064 76.8273 5.97852C77.0611 6.04704 77.2678 6.1494 77.4466 6.28537C77.6258 6.42155 77.7804 6.58815 77.9105 6.78429C78.0399 6.97958 78.1454 7.2042 78.227 7.45794V7.45837C78.307 7.7119 78.3671 7.99156 78.4067 8.29755V8.29754ZM83.1304 13.802C82.9242 13.8298 82.7138 13.8441 82.4994 13.8441L82.4991 13.8437C82.3162 13.8426 82.1392 13.8266 81.9689 13.7962C81.7972 13.7653 81.6321 13.7199 81.4742 13.6602H81.4736C81.3168 13.5996 81.1691 13.5268 81.0309 13.4418C80.8926 13.3564 80.7649 13.2594 80.6479 13.1504C80.5287 13.0416 80.4237 12.9232 80.3321 12.7962C80.2401 12.6684 80.1609 12.5315 80.0941 12.3861V12.3857C80.0282 12.2399 79.9788 12.0876 79.9458 11.9294C79.9125 11.7703 79.8951 11.6043 79.894 11.432V11.4315C79.8951 11.2626 79.9162 11.1009 79.9569 10.9463C79.9976 10.7917 80.0582 10.6438 80.1383 10.502L80.1385 10.5014C80.2196 10.3617 80.3169 10.2311 80.4304 10.1099C80.5435 9.98916 80.6731 9.8776 80.8197 9.77567C80.9657 9.67417 81.1256 9.5836 81.2985 9.5048C81.471 9.426 81.6565 9.35876 81.854 9.3033C82.0522 9.24827 82.2612 9.20694 82.4807 9.1791C82.6986 9.1517 82.9268 9.13756 83.1647 9.13628L83.165 9.13606C83.3039 9.13606 83.4453 9.14035 83.588 9.14891C83.7307 9.15769 83.8725 9.17054 84.013 9.18746C84.1553 9.20437 84.2956 9.22471 84.4341 9.24827C84.5723 9.27182 84.7086 9.2988 84.8426 9.32942H84.8428C84.9738 9.3594 85.1006 9.39281 85.2226 9.42878C85.3172 9.45662 85.4095 9.48638 85.4993 9.51786V8.86176H85.4995C85.4984 8.62815 85.4743 8.40952 85.4275 8.20652C85.381 8.0046 85.3118 7.81788 85.2207 7.64765C85.1295 7.47741 85.019 7.32645 84.8898 7.19519C84.7611 7.06457 84.6131 6.95301 84.4465 6.86179L84.4463 6.86136C84.279 6.76843 84.0961 6.69841 83.8978 6.65109C83.6987 6.60355 83.4838 6.57935 83.2537 6.57807V6.57828C83.0638 6.57828 82.8704 6.59734 82.6736 6.63545C82.4757 6.67357 82.2736 6.73096 82.0674 6.8074H82.0672C81.8618 6.88256 81.6543 6.97592 81.4457 7.08663C81.2378 7.1969 81.0286 7.32474 80.8191 7.46992L80.7645 7.50761L80.7308 7.45086L80.435 6.95579L80.4056 6.90676L80.4537 6.87507C80.704 6.70933 80.9503 6.56436 81.1919 6.44038C81.4349 6.31576 81.6748 6.21126 81.9117 6.12797C82.1466 6.0436 82.3797 5.98043 82.6105 5.93825C82.8433 5.89563 83.0725 5.87444 83.2981 5.87444L83.2983 5.87465C83.6128 5.87593 83.906 5.90741 84.177 5.96908C84.4487 6.03096 84.6991 6.12325 84.927 6.24595V6.24574C85.1563 6.36715 85.3594 6.51575 85.5363 6.6907C85.7131 6.86564 85.8636 7.06714 85.9874 7.29476C86.1109 7.52281 86.204 7.77248 86.2667 8.04379C86.3289 8.31359 86.3606 8.60588 86.3619 8.91979L86.3622 8.92001V12.6063C86.3622 12.6626 86.368 12.711 86.3798 12.751C86.3904 12.7883 86.4059 12.8185 86.4257 12.8407L86.4263 12.8416C86.4452 12.8639 86.4694 12.8806 86.4983 12.8917C86.5292 12.9037 86.5671 12.9097 86.6112 12.9097H86.6728V12.9703V13.6232V13.6756L86.6199 13.6831C86.5945 13.6865 86.569 13.6898 86.5425 13.6921C86.5153 13.6947 86.4905 13.696 86.4681 13.696C86.4209 13.6983 86.3804 13.6983 86.345 13.6983C86.2797 13.6983 86.2162 13.6904 86.1542 13.6754C86.0924 13.6602 86.0326 13.6379 85.9748 13.6097L85.9743 13.609C85.9165 13.5799 85.8634 13.5448 85.816 13.5043C85.7688 13.4638 85.7266 13.4176 85.6903 13.3662H85.6905C85.6522 13.3125 85.6235 13.2555 85.6041 13.1945C85.585 13.1337 85.5748 13.0683 85.5735 12.9981L85.5732 12.997V12.5405C85.4819 12.645 85.3853 12.7437 85.2833 12.8362C85.1411 12.9651 84.9875 13.0829 84.8228 13.1885C84.6577 13.2955 84.4846 13.3898 84.3038 13.4709C84.1218 13.5527 83.9326 13.6214 83.7364 13.6767C83.5402 13.7319 83.3381 13.7739 83.1304 13.802V13.802ZM82.1307 13.0788C82.2934 13.1185 82.4654 13.1392 82.6473 13.1403V13.1401C82.8361 13.1401 83.0197 13.1283 83.1974 13.105C83.3768 13.0814 83.5523 13.0461 83.7229 12.9994C83.8921 12.9529 84.0528 12.8968 84.2042 12.8309C84.3547 12.7651 84.4961 12.6896 84.6273 12.6043L84.6279 12.6039C84.7595 12.5202 84.8779 12.4279 84.9825 12.3281C85.088 12.2275 85.1802 12.1185 85.2583 12.0026L85.2596 12.0005L85.262 11.9975C85.3009 11.951 85.3359 11.9046 85.366 11.8577C85.3951 11.8118 85.4201 11.7652 85.4397 11.7172C85.4597 11.6688 85.4747 11.6228 85.4847 11.5791C85.4943 11.5365 85.4993 11.4947 85.4993 11.4536V10.1566C85.3311 10.0969 85.1608 10.0438 84.9892 9.99751C84.8039 9.94762 84.6151 9.90501 84.4239 9.87032V9.87053C84.2284 9.83627 84.0324 9.80993 83.8366 9.79259C83.6457 9.77588 83.4512 9.76711 83.2537 9.76711V9.76689C82.9994 9.76796 82.761 9.78595 82.5389 9.82107C82.3177 9.85576 82.1128 9.90758 81.9243 9.97653C81.7365 10.0453 81.5699 10.1275 81.4246 10.2232C81.2804 10.3181 81.1567 10.4264 81.0531 10.5483C80.9502 10.6703 80.8728 10.8016 80.8213 10.9423C80.7693 11.0831 80.7427 11.2341 80.7417 11.3954C80.7427 11.5602 80.7649 11.7172 80.8073 11.8656C80.8498 12.0142 80.9128 12.1542 80.9961 12.2855V12.2857C81.0803 12.4168 81.1788 12.535 81.2926 12.639C81.4046 12.7416 81.5312 12.8305 81.673 12.9048H81.6733C81.8166 12.9812 81.9691 13.0397 82.1307 13.0788L82.1307 13.0788ZM91.8706 13.7718C91.6064 13.8184 91.3221 13.8426 91.0189 13.8437L91.0186 13.8441C90.8185 13.8441 90.6206 13.833 90.425 13.8107C90.2295 13.7887 90.0366 13.7555 89.846 13.7114H89.8458C89.657 13.6673 89.4728 13.6125 89.2929 13.5467C89.1137 13.481 88.9397 13.4047 88.7713 13.3176C88.6027 13.2302 88.4422 13.1319 88.2902 13.0232C88.1375 12.914 87.9922 12.7932 87.8549 12.6619L87.8164 12.6251L87.8482 12.5827L88.2179 12.0876L88.2582 12.0337L88.3089 12.0784C88.5116 12.2576 88.7184 12.4133 88.9292 12.5459C89.1419 12.6797 89.3599 12.791 89.5824 12.8801V12.8803C89.804 12.9673 90.0342 13.0324 90.2732 13.0754C90.5118 13.1187 90.7602 13.1401 91.0186 13.1401C91.2388 13.1401 91.4447 13.1247 91.6355 13.0943C91.8271 13.0636 92.0048 13.0178 92.1677 12.9572C92.3298 12.897 92.4742 12.8234 92.6002 12.7362C92.7248 12.6501 92.8316 12.5506 92.9199 12.4384L92.9203 12.4377C93.0089 12.3277 93.0756 12.205 93.1207 12.0705C93.1661 11.9345 93.1894 11.7868 93.1905 11.6283H93.1903C93.1903 11.5155 93.1781 11.4123 93.1533 11.3193C93.1289 11.2273 93.092 11.1437 93.0426 11.0692L93.0421 11.0688C92.9936 10.9934 92.9323 10.9236 92.8592 10.8594C92.7848 10.7943 92.698 10.735 92.5989 10.6817L92.5984 10.6814C92.4986 10.6268 92.3855 10.575 92.2602 10.5262C92.1351 10.4772 91.9961 10.4303 91.8441 10.3857C91.6901 10.3408 91.5257 10.296 91.3499 10.2513C91.1755 10.2067 90.9867 10.1613 90.7831 10.1148C90.5634 10.0647 90.3591 10.0149 90.1706 9.96517C89.9813 9.91549 89.806 9.86539 89.6446 9.81528H89.6444C89.4837 9.76539 89.3353 9.711 89.2 9.65169C89.0643 9.59259 88.9438 9.5292 88.8385 9.46154C88.7298 9.39345 88.6347 9.31614 88.5534 9.23028C88.4716 9.14377 88.4039 9.04848 88.3506 8.94484H88.3508C88.2967 8.84056 88.2565 8.72429 88.2301 8.59581C88.204 8.46819 88.1912 8.32879 88.1912 8.17762L88.1914 8.17719C88.1925 7.98447 88.2127 7.80374 88.2508 7.63544C88.2897 7.46392 88.3472 7.30525 88.4222 7.15985L88.4224 7.15964C88.4983 7.01532 88.589 6.88277 88.6939 6.76286V6.76264C88.7989 6.64252 88.9188 6.5346 89.0523 6.43931C89.1844 6.34423 89.3275 6.26094 89.481 6.19006C89.6353 6.11897 89.7993 6.06051 89.9724 6.0149V6.01511C90.1432 5.96843 90.3215 5.93332 90.5062 5.90976C90.6919 5.88621 90.8829 5.87443 91.0778 5.87443L91.078 5.87464C91.2825 5.87593 91.478 5.88749 91.6646 5.90998C91.8524 5.93289 92.0333 5.96672 92.2078 6.01254C92.3818 6.05815 92.546 6.11254 92.7004 6.1755C92.8551 6.23888 93.0004 6.31126 93.1361 6.39305V6.39327C93.271 6.47378 93.3939 6.56136 93.5048 6.65558C93.6159 6.75001 93.7153 6.85172 93.803 6.96071L93.8376 7.00375L93.7976 7.04187L93.3834 7.43479L93.3367 7.47933L93.2942 7.43073C93.2114 7.33629 93.1204 7.24957 93.0208 7.1712V7.17141C92.9206 7.0924 92.8114 7.02152 92.693 6.95921H92.6928C92.5741 6.89604 92.4503 6.84058 92.3213 6.79326C92.1919 6.74594 92.0564 6.7059 91.9146 6.67378C91.7725 6.64144 91.6281 6.61767 91.4817 6.60183C91.3358 6.5862 91.1861 6.57827 91.0334 6.57827C90.891 6.57827 90.7535 6.58556 90.6217 6.60033C90.4914 6.61468 90.3654 6.63673 90.2445 6.66628C90.1238 6.69562 90.0098 6.73288 89.903 6.77806C89.7967 6.82303 89.6977 6.87592 89.6061 6.93673C89.5154 6.99711 89.4349 7.06563 89.3647 7.14208C89.2938 7.21938 89.232 7.30567 89.1798 7.4001H89.18C89.1295 7.49368 89.0913 7.59668 89.0654 7.70845C89.0393 7.82194 89.0254 7.94442 89.0243 8.07547H89.0245C89.0245 8.17997 89.0332 8.27504 89.051 8.35984C89.0686 8.44335 89.095 8.51808 89.1302 8.58296C89.1667 8.64934 89.2129 8.71058 89.2683 8.76583C89.3244 8.8215 89.3906 8.87182 89.4673 8.91657C89.5465 8.9624 89.6364 9.00608 89.7375 9.04719H89.7377C89.8397 9.08895 89.9537 9.12835 90.0799 9.16518C90.208 9.20308 90.3465 9.24141 90.4957 9.27974C90.6434 9.31785 90.8077 9.35789 90.9882 9.39965V9.39987C91.2279 9.45361 91.4543 9.50843 91.6673 9.56346C91.8848 9.61956 92.0888 9.67652 92.2789 9.73348H92.2793C92.4673 9.79087 92.6406 9.85296 92.7994 9.91934C92.958 9.98551 93.1028 10.0566 93.2338 10.1322L93.2344 10.1326C93.497 10.2881 93.6964 10.4797 93.8326 10.7071L93.8328 10.7073C93.9011 10.823 93.9529 10.9519 93.9872 11.0934C94.0212 11.2341 94.0384 11.3881 94.0384 11.5555L94.0381 11.5557C94.037 11.7887 94.0046 12.0065 93.9413 12.2086C93.8778 12.4112 93.783 12.5985 93.6571 12.7701C93.5329 12.9411 93.3826 13.0928 93.207 13.2249C93.0315 13.357 92.8307 13.4696 92.6052 13.5626C92.3811 13.6551 92.136 13.7249 91.8706 13.7718V13.7718ZM96.5724 6.5952V3.68325V3.62244H96.6341H97.2823H97.3441V3.68325V6.5952H98.7268H98.7886V6.65602V7.29669V7.35729H98.7268H97.3441V13.6377V13.6983H97.2823H96.6341H96.5724V13.6377V7.35729H95.1894H95.1279V7.29669V6.65602V6.5952H95.1894H96.5724ZM112.735 5.9875C112.764 5.98472 112.797 5.98087 112.829 5.9768L112.899 5.96823V6.03697V6.72133V6.77978L112.839 6.78193C112.61 6.79028 112.391 6.81833 112.181 6.86608C111.973 6.91383 111.774 6.98107 111.586 7.06736L111.586 7.06779C111.396 7.1543 111.221 7.25901 111.059 7.38085C110.897 7.50269 110.747 7.64251 110.611 7.79926H110.611C110.476 7.95622 110.357 8.12816 110.255 8.3151C110.153 8.49989 110.068 8.69967 110 8.91445V13.6377V13.6983H109.938H109.198H109.137V13.6377V6.06631V6.0055H109.198H109.894H109.955V6.06631V7.69841C110.014 7.59713 110.077 7.4997 110.142 7.40634C110.254 7.24788 110.375 7.10035 110.504 6.96395L110.505 6.96373C110.636 6.82798 110.774 6.70506 110.919 6.59564C111.063 6.48665 111.215 6.39072 111.373 6.30892C111.531 6.22563 111.692 6.15925 111.855 6.10914C112.019 6.05882 112.187 6.02456 112.357 6.00593L112.361 6.0055H112.364C112.415 6.0055 112.461 6.00486 112.5 6.00357C112.543 6.00208 112.584 5.99972 112.622 5.99629L112.624 5.99608C112.665 5.99351 112.702 5.99051 112.735 5.98751V5.9875Z" fill="white" fill-opacity="0.5"/>
</g>
<defs>
<clipPath id="clip0_21_261">
<rect width="113" height="28" fill="white"/>
</clipPath>
</defs>
</svg>
