<svg width="175" height="59" viewBox="0 0 175 59" fill="none" xmlns="http://www.w3.org/2000/svg">
<g clip-path="url(#clip0_29_11)">
<path fill-rule="evenodd" clip-rule="evenodd" d="M37.0573 2.89218C37.0573 3.0957 36.8285 3.86047 36.5488 4.5916C36.2692 5.32259 35.7945 6.56023 35.4941 7.34196C35.1937 8.12356 34.9683 8.90383 34.9935 9.07609C35.0221 9.27173 35.2227 8.84387 35.528 7.93581C36.1324 6.13917 36.5005 5.8745 36.5005 7.23713C36.5005 7.70345 36.4464 8.0851 36.3803 8.0851C35.7632 8.0851 32.4563 22.2188 32.2619 24.2343C32.2384 24.4766 32.1708 24.7533 32.1117 24.8494C32.0417 24.9629 32.0608 24.9888 32.166 24.9237C32.7813 24.542 33.0783 25.4539 32.7382 26.6821C32.6011 27.1775 32.5774 27.1933 32.0911 27.114L31.5861 27.0318C31.4661 27.7997 31.5699 28.3432 31.4883 29.418C32.0939 29.4024 34.8021 29.248 37.3706 29.5671C37.1707 29.6911 36.6746 32.3072 36.5749 32.7962C35.6964 32.787 30.361 32.6423 30.2726 32.9061C30.2406 33.0025 30.1703 33.0543 30.1167 33.021C30.0632 32.9878 30.0095 33.0659 29.9975 33.1946C29.9566 33.64 29.5553 35.5983 29.4802 35.7203C29.3499 35.9319 29.3564 41.0486 29.4873 41.1695C29.7172 41.382 30.576 41.5906 32.1167 41.8083C32.9586 41.9273 33.7753 42.0519 33.9316 42.0855C34.1195 42.126 34.3729 42.4731 34.6811 43.1123C35.1309 44.0449 35.1671 44.0809 35.7359 44.1592C36.4757 44.2609 47.0907 44.46 51.7743 44.46C53.707 44.46 55.2884 44.4735 55.2884 44.49C55.2886 44.5066 55.071 44.9175 54.8048 45.4032C54.3313 46.2673 54.3278 46.2867 54.6292 46.3094C54.8432 46.3257 54.8805 46.2975 54.7513 46.2174C54.6079 46.1284 54.7796 45.7213 55.4995 44.4432C56.757 42.2105 56.5944 42.3442 58.1835 42.2346C63.8017 41.8469 67.3963 41.1892 67.3963 40.5492C67.3963 40.3056 73.4893 36.2998 74.3581 35.9207C74.8852 35.6909 75.4395 34.5423 75.624 33.2976C75.8175 31.992 75.2489 32.1413 80.4088 32.0398C105.809 31.5396 131.273 31.073 156.659 30.4722C160.219 30.3881 163.157 30.2935 163.189 30.2624C164.869 28.6171 142.918 30.4906 80.4921 31.769L75.8435 31.8642L75.9377 31.2502C76.7734 25.8009 80.4246 20.8212 83.8529 20.4547L163.065 23.5031C160.57 7.07877 159.319 15.1843 159.132 14.88L158.537 12.7867L158.98 15.0552C159.32 17.3664 155.441 17.3543 154.632 13.9664C154.581 13.7517 154.509 13.6055 154.473 13.6415C154.438 13.6776 154.486 14.0554 154.581 14.4811C155.077 16.7069 150.289 16.3852 150.048 15.1149C149.96 14.6556 149.008 11.0742 148.947 11.0742C148.694 11.0742 150.4 16.8874 149.308 15.7918C149.173 15.6568 149.08 15.6568 148.865 15.7918C147.79 16.4647 143.745 14.623 144.076 13.6937C143.943 12.8597 143.478 11 143.321 10.9028C143.246 10.8563 143.519 12.1616 143.562 12.3477C143.67 12.8175 143.644 14.9734 140.937 15.1536C140.881 15.2998 101.266 13.5527 101.97 10.7815C101.922 10.5569 101.384 10.6887 101.282 8.1468C100.749 9.19508 101.435 10.4648 101.268 11.4364C101.19 11.8851 101.174 11.8994 101.064 11.6109C100.765 10.8209 99.5569 11.6872 99.5406 10.9825C99.4946 9.1657 94.3403 10.7658 93.9224 9.48419C93.6839 8.75227 93.0038 7.583 93.0038 7.90483C93.0038 7.99484 93.0672 8.10781 93.1445 8.15589C93.222 8.20383 93.2716 8.4231 93.2547 8.64317C93.2381 8.86311 93.1792 9.01507 93.1237 8.98089C92.9603 8.8794 92.8731 9.12965 93.0001 9.33583C93.9753 10.9183 84.1971 9.23995 84.1166 7.79052C83.8536 7.63441 83.7016 6.38796 83.8383 6.01753C83.9187 5.79906 83.9093 5.72481 83.8089 5.78717C83.5891 5.92338 83.3148 5.46735 83.1157 4.6346C83.0187 4.22837 82.8921 3.89599 82.8347 3.89599C82.7774 3.89599 82.8181 4.22583 82.9251 4.62912C83.2093 5.6989 82.8124 7.17931 82.9551 7.70105C82.9708 7.7586 82.921 7.80587 82.8445 7.80587C82.7679 7.80587 82.7052 7.75059 82.7052 7.68302C82.7052 5.09704 72.6036 9.9019 73.4322 2.95682C73.3249 2.92089 73.5149 1.82107 73.6064 1.76432C73.6846 1.71598 73.9258 1.76832 74.1421 1.8809C74.6497 2.1453 74.7206 1.94112 74.5093 1.94112C74.4155 1.94112 74.371 1.88851 74.4107 1.82414C74.5199 1.64667 70.7295 0.805108 70.3191 0.915813C70.1277 0.967359 69.8318 1.0997 69.6616 1.20973C69.3894 1.38587 69.3251 1.3828 69.1267 1.18342C66.36 -1.59191 37.0574 1.15672 37.0574 2.89219L37.0573 2.89218ZM65.8998 0.537226C67.6427 0.656877 68.9273 1.02291 68.9273 1.39989C68.9273 1.47867 68.8185 1.4736 68.6582 1.38747C68.51 1.30801 68.3466 1.24298 68.2948 1.24298C68.2432 1.24298 68.2235 2.33493 68.251 3.66951L68.3009 6.09591L69.136 6.1767C71.121 6.3686 71.2233 6.42548 71.3387 7.40325C71.5415 9.12136 71.2519 9.63322 70.5187 8.85309C69.8106 8.09993 68.8997 8.41615 68.4883 9.55804C68.3928 9.82311 68.2802 10.04 68.2383 10.04C68.1962 10.04 68.1573 10.1813 68.152 10.3542C68.0981 12.0895 67.3757 21.1002 67.192 22.3278C67.1634 22.5198 67.1002 23.3367 67.0517 24.1432C66.9335 26.1135 66.6981 27.7737 66.5369 27.7737C66.4632 27.7737 66.4375 27.5122 66.4787 27.1802C66.5191 26.8539 66.5891 26.084 66.6341 25.4697C66.6792 24.8553 66.7514 24.1327 66.7947 23.8638C66.8481 23.533 66.8277 23.4203 66.7317 23.5147C66.6538 23.5915 66.4882 24.3105 66.3636 25.1122C66.0733 26.9814 65.9862 27.0527 66.099 25.3287C66.1798 24.0963 65.8654 23.4518 65.8654 24.6999C65.8654 25.2379 65.6441 27.1376 65.5109 27.7422C65.4485 28.0257 65.4804 28.0501 65.8073 27.9677C66.0511 27.9063 66.2145 27.9402 66.2957 28.0689C66.3974 28.23 66.4199 28.2273 66.4298 28.0529C66.4376 27.9151 66.4795 27.939 66.5523 28.1227C66.6627 28.4017 66.6466 29.0305 66.4714 31.2645C66.3402 32.9379 66.3416 32.9287 66.2177 33.0448C66.1161 33.1399 66.2156 30.3168 66.3616 28.9606C66.4147 28.4686 66.3991 28.4312 66.2328 28.6463C65.9406 29.0236 65.6124 28.96 65.6922 28.5416C65.7289 28.3496 65.7023 28.1926 65.6332 28.1926C65.5642 28.1926 65.4958 28.5538 65.4813 28.9954C65.4554 29.7841 65.3729 30.9316 65.2226 32.5911C65.1092 33.8413 64.5602 34.3328 63.8021 33.8626C63.7122 33.8069 63.6386 33.8123 63.6384 33.8744C63.6364 34.6513 57.1078 34.947 54.7319 33.6012L53.6881 33.01L50.7655 33.0289C47.4227 33.0507 47.923 32.8921 51.8789 32.6759C53.8993 32.5656 53.531 32.5545 49.3563 32.6006C44.8298 32.6504 42.207 32.8146 39.4927 33.218C38.836 33.3158 39.0296 33.3291 40.3974 33.2807C44.4497 33.1371 45.9317 33.0682 46.5443 32.9949C47.0323 32.9365 47.3615 32.9914 47.8665 33.2159C48.5541 33.5214 52.0791 33.6232 52.5195 33.3502C52.6848 33.2475 53.8649 33.5399 54.3679 33.8077C54.8469 34.0631 54.3376 34.168 52.5196 34.1889C50.9983 34.2064 45.4297 33.796 47.5994 33.4575C48.0549 33.3866 42.3244 33.491 41.7194 33.5647C41.4898 33.5928 39.5796 33.6456 37.4747 33.6824C35.3697 33.7189 33.8667 33.724 34.1346 33.6933C34.4025 33.6626 34.9661 33.5453 35.3871 33.433C36.7411 33.0715 37.9525 32.8205 38.3098 32.8274C39.4989 32.8507 40.9877 32.7878 40.9176 32.7174C40.2923 32.2523 38.6046 33.0884 38.5359 32.5162C38.5262 32.4364 38.4263 32.3142 38.3136 32.2443C37.4498 31.7089 43.1016 32.137 43.9238 31.4011C43.8764 31.3763 37.488 4.07107 37.472 2.82715C39.9332 0.900319 60.9569 0.198176 65.8997 0.537231L65.8998 0.537226ZM54.5264 2.41679C54.5874 2.64554 53.2103 2.79283 53.4006 2.24118C53.4591 2.07146 53.4252 2.08214 53.2708 2.28205C52.3422 3.48657 58.0681 3.3123 58.4199 3.31243C62.7059 3.31523 63.7986 3.27117 61.9687 3.16928C61.6849 3.15338 54.1683 1.07205 54.5264 2.41679L54.5264 2.41679ZM85.5524 2.78829C85.5411 2.80672 85.3514 2.85052 85.5624 2.91582C94.1834 5.587 161.024 12.7428 160.545 12.2757C160.111 11.853 85.7024 2.54392 85.552 2.78827L85.5524 2.78829ZM69.971 9.06246C70.0184 9.13925 69.9906 9.20215 69.9097 9.20215C69.8286 9.20215 69.7623 9.13925 69.7623 9.06246C69.7623 8.98568 69.7899 8.92292 69.8236 8.92292C69.8575 8.92292 69.9238 8.98568 69.971 9.06246ZM32.4755 17.8574C32.4815 17.9738 32.7314 17.1264 33.0307 15.9744C33.5396 14.0162 34.161 11.873 34.6198 10.4939C34.7296 10.1638 34.7584 9.90028 34.6847 9.90028C33.7751 9.90028 32.4141 16.6643 32.4755 17.8575L32.4755 17.8574ZM72.3156 19.4751C72.3401 19.9565 72.4065 20.5027 72.4063 20.9664C72.4052 21.6871 69.3553 21.0207 69.3545 21.0362C69.023 20.6205 69.003 19.5506 69.4492 19.6399C69.5228 19.6546 71.7313 19.4654 72.3156 19.4751ZM155.268 32.6491C155.268 32.9903 155.331 33.1379 155.477 33.1379C155.623 33.1379 155.686 32.9903 155.686 32.6491C155.686 32.3078 155.623 32.1604 155.477 32.1604C155.331 32.1604 155.268 32.3078 155.268 32.6491ZM151.093 32.9284C151.093 33.2697 151.156 33.4171 151.302 33.4171C151.448 33.4171 151.51 33.2697 151.51 32.9284C151.51 32.5872 151.448 32.4398 151.302 32.4398C151.156 32.4398 151.093 32.5872 151.093 32.9284ZM160.904 32.8585C160.549 32.9492 160.591 32.9651 161.183 32.9651C161.566 32.9651 162.066 32.9173 162.296 32.8585C162.651 32.768 162.61 32.752 162.018 32.752C161.635 32.752 161.134 32.7999 160.904 32.8585ZM161.287 33.2407C160.885 33.2689 160.556 33.3594 160.556 33.4418C160.556 33.535 160.721 33.5587 160.991 33.5043C161.231 33.4564 161.704 33.4171 162.043 33.4171C162.419 33.4171 162.627 33.3625 162.574 33.2774C162.527 33.2007 162.382 33.1495 162.253 33.1637C162.124 33.178 161.689 33.2125 161.287 33.2407ZM160.974 33.836C160.565 33.9223 160.633 33.9414 161.391 33.9552C161.889 33.9641 162.39 33.9104 162.505 33.836C162.754 33.6742 161.74 33.6742 160.974 33.836ZM152.996 34.3492C150.916 34.5162 148.851 34.668 148.408 34.6864C147.964 34.705 147.569 34.7725 147.53 34.8366C147.435 34.9907 147.372 34.9936 151.11 34.6812C152.899 34.5316 154.958 34.3659 155.686 34.313C156.413 34.26 157.133 34.166 157.286 34.1043C157.62 33.9694 157.979 33.949 152.996 34.3492ZM84.2361 35.1742V35.8724H84.7083C85.2329 35.8724 85.3494 35.7054 85.3494 34.9534C85.3494 34.4896 85.3337 34.4761 84.7928 34.4761H84.2361V35.1742ZM160.626 34.3945C160.258 34.553 160.884 34.5562 161.878 34.401L162.574 34.2922L161.739 34.2834C161.28 34.2786 160.779 34.3285 160.626 34.3945V34.3945ZM161.183 34.7764C160.876 34.807 160.563 34.8989 160.487 34.9806C160.389 35.0848 160.514 35.1033 160.904 35.0426C161.21 34.9952 161.696 34.9555 161.983 34.9547C162.27 34.9538 162.505 34.8903 162.505 34.8134C162.505 34.6752 162.262 34.6684 161.183 34.7764ZM153.667 41.6555C153.589 42.9322 152.763 44.7203 152.763 43.6124C152.763 43.5256 152.707 43.489 152.639 43.5312C152.569 43.5742 152.575 43.3461 152.65 43.0159C152.913 41.8743 152.722 36.7933 152.389 36.0535C152.062 35.3262 151.525 35.1196 150.862 35.4651C150.392 35.7096 150.328 35.7 150.602 35.4256C150.738 35.2887 151.058 35.2 151.412 35.2007C151.954 35.2015 151.969 35.1917 151.621 35.068C150.126 34.5366 149.328 36.5131 149.016 41.516C148.937 42.7903 148.826 43.5367 148.674 43.8199C148.551 44.0503 148.45 44.3162 148.449 44.4107C148.449 44.5052 148.307 44.6152 148.135 44.6549C144.371 45.5262 89.6257 50.2111 89.0802 50.0677C88.9491 50.0333 88.816 50.077 88.7846 50.1649C88.6146 50.6392 88.6055 50.0611 88.7707 49.2774C91.1764 37.8522 82.287 31.1882 81.2321 48.4789C81.1247 50.2398 80.5108 51.8531 79.8944 51.9952C78.1447 52.398 67.7326 53.8186 66.4674 54.0488C66.2943 54.1888 44.1159 53.7615 45.964 53.6122C46.2318 53.5907 46.545 53.5785 46.6598 53.5853C46.8012 53.5939 46.8122 53.5728 46.6938 53.5202C46.5977 53.4776 46.5627 53.3693 46.6162 53.2799C46.6695 53.1905 46.6059 53.2048 46.4747 53.3116C45.826 53.8395 33.3751 52.7594 33.5893 52.963C33.9008 53.259 43.5668 53.8125 43.8764 53.821C62.3083 54.3298 37.2714 57.806 39.1213 58.0149L66.2132 58.9999L156.498 45.0987C156.725 44.9199 156.353 44.5879 155.927 44.5879C155.469 44.5879 155.709 44.12 156.221 44.0149C156.883 43.8791 157.024 43.6942 156.767 43.2999C156.583 43.0191 156.579 42.8523 156.733 42.0709C156.831 41.5736 156.949 40.5108 156.994 39.7089C157.274 34.7872 156.288 34.4126 155.506 34.8286C153.575 35.8557 153.774 39.8999 153.666 41.6555L153.667 41.6555ZM160.835 35.372C160.567 35.4286 160.41 35.489 160.487 35.5062C160.766 35.5691 161.804 35.4883 162.184 35.374C162.701 35.2183 161.57 35.2166 160.835 35.372V35.372ZM161.278 35.7941C160.871 35.8537 160.495 35.9489 160.443 36.0059C160.39 36.0629 160.654 36.0692 161.028 36.0201C161.402 35.9708 161.887 35.9306 162.107 35.9306C162.326 35.9306 162.505 35.8677 162.505 35.7909C162.505 35.6361 162.357 35.6364 161.278 35.7941ZM160.939 36.3114C160.652 36.3416 160.417 36.4223 160.417 36.4909C160.417 36.6214 161.628 36.5198 162.226 36.339C162.615 36.2214 161.935 36.207 160.939 36.3114ZM85.2796 37.3732C82.923 37.5588 81.0439 37.7673 80.9653 37.8518C80.8153 38.0135 81.1244 37.9992 86.4627 37.6C89.159 37.3982 89.92 37.2764 89.5712 37.1027C89.5072 37.0706 87.5759 37.1924 85.2796 37.3732H85.2796ZM162.157 36.6988C162.08 36.7254 161.652 36.7884 161.206 36.8389C160.759 36.8895 160.424 36.9616 160.462 36.9992C160.577 37.1144 162.505 36.8797 162.505 36.7504C162.505 36.6267 162.407 36.6123 162.157 36.6988ZM161.252 37.2903C160.908 37.3201 160.563 37.4087 160.487 37.4871C160.33 37.648 161.821 37.5074 162.296 37.3167C162.61 37.1907 162.451 37.1865 161.252 37.2903ZM161.357 37.7812C160.84 37.8564 160.417 37.9804 160.417 38.0564C160.417 38.1328 160.558 38.1602 160.73 38.1178C160.902 38.0754 161.372 37.9978 161.774 37.945C162.176 37.8924 162.505 37.7947 162.505 37.7278C162.505 37.6609 162.458 37.6147 162.4 37.6251C162.343 37.6355 161.873 37.7057 161.357 37.7812H161.357ZM161.26 38.3169C160.276 38.5106 160.273 38.5869 161.252 38.4964C162.159 38.4127 162.943 38.1615 162.226 38.1842C162.035 38.1905 161.6 38.25 161.26 38.3169ZM160.904 38.9295C159.978 39.1684 160.528 39.178 161.67 38.9428C162.331 38.8068 162.443 38.7556 162.087 38.7532C161.819 38.7515 161.287 38.8308 160.904 38.9295ZM155.109 39.2998C155.445 39.5476 155.671 39.8156 155.632 39.919C155.593 40.0196 155.632 40.1249 155.717 40.1535C155.897 40.2137 155.974 40.8177 155.801 40.8177C155.738 40.8177 155.686 40.959 155.688 41.1319C155.689 41.3796 155.717 41.4027 155.819 41.2412C155.905 41.1044 155.939 41.3252 155.921 41.9044C155.906 42.3819 155.856 42.7724 155.809 42.7724C155.762 42.7726 155.752 42.9179 155.786 43.0953C155.849 43.4269 155.485 43.8748 155.302 43.6908C155.091 43.4799 154.899 42.5329 155.007 42.2398C155.092 42.0102 155.067 41.9348 154.907 41.9348C154.778 41.9348 154.733 41.8667 154.793 41.7602C154.86 41.6407 154.844 41.6298 154.742 41.7254C154.66 41.8022 154.573 42.0529 154.548 42.2826C154.49 42.8181 154.078 42.931 153.984 42.4374C153.943 42.2219 153.989 42.0608 154.106 42.016C154.356 41.9194 154.346 41.5272 154.09 41.4286C153.772 41.3063 153.849 40.3988 154.177 40.3988C154.479 40.3988 154.509 40.2172 154.244 39.9962C154.134 39.9047 154.083 39.6884 154.122 39.4806C154.171 39.2263 154.234 39.166 154.34 39.272C154.611 39.5444 154.759 39.4265 154.502 39.1422C154.125 38.7238 154.439 38.8055 155.109 39.2998L155.109 39.2998ZM155.129 40.1278C155.129 40.2092 155.191 40.2368 155.268 40.1894C155.344 40.1419 155.407 40.0755 155.407 40.0416C155.407 40.0077 155.344 39.98 155.268 39.98C155.191 39.98 155.129 40.0465 155.129 40.1278ZM155.557 40.4803C155.564 40.6429 155.597 40.676 155.641 40.5648C155.682 40.464 155.677 40.3434 155.63 40.297C155.584 40.2507 155.551 40.3331 155.557 40.4803ZM151.601 43.1218C151.562 43.9504 151.445 44.7309 151.312 45.0417C151.189 45.3299 151.142 45.5653 151.207 45.5653C151.272 45.5653 151.325 45.6525 151.325 45.759C151.325 45.8656 151.226 45.9332 151.104 45.9094C150.983 45.8855 150.812 45.8612 150.725 45.8553C150.359 45.8306 149.803 43.6129 150.161 43.6084C150.263 43.6069 150.247 43.5553 150.122 43.4755C149.973 43.381 149.915 43.0766 149.913 42.374C149.911 41.8401 149.958 41.4755 150.017 41.5642C150.076 41.6529 150.117 42.0081 150.109 42.3538C150.085 43.3457 150.112 43.4352 150.315 43.0519C150.417 42.8599 150.545 42.3963 150.599 42.0217C150.749 40.9845 150.828 40.8586 151.033 41.325C151.13 41.5452 151.222 41.647 151.238 41.5508C151.254 41.455 151.282 41.3134 151.302 41.2366C151.321 41.1598 151.351 40.9558 151.369 40.7829C151.46 39.907 151.658 41.9051 151.601 43.1218V43.1218ZM155.001 41.0389C155.007 41.2015 155.04 41.2346 155.085 41.1232C155.125 41.0224 155.12 40.902 155.074 40.8556C155.027 40.8092 154.995 40.8916 155.001 41.0389ZM29.4695 42.0237C29.5865 43.4312 29.9199 44.2211 30.1468 43.628C30.1981 43.4942 30.1519 43.4126 30.0249 43.4126C29.7796 43.4126 29.7636 43.2211 29.9799 42.8733C30.1095 42.6654 30.0715 42.5024 29.7787 42.0098L29.4179 41.4026L29.4695 42.0237L29.4695 42.0237ZM67.2793 42.156C67.2793 42.3479 67.3108 42.4266 67.3494 42.3306C67.3881 42.2346 67.3881 42.0775 67.3494 41.9814C67.3108 41.8855 67.2793 41.964 67.2793 42.156ZM31.1426 42.4024C31.0049 42.5039 30.9592 42.6261 30.829 43.2378C30.6969 43.86 31.5454 44.5866 31.8419 44.1053C31.8996 44.0114 31.8062 43.9915 31.5778 44.0489C31.2016 44.1439 30.9868 43.7552 31.0974 43.1793C31.1821 42.7379 31.8292 42.8438 31.8823 43.3079C31.9066 43.5191 31.8616 43.692 31.7825 43.692C31.7033 43.692 31.6719 43.6041 31.7132 43.4966C31.7968 43.2778 31.5517 43.0606 31.435 43.2501C31.3195 43.4377 31.7063 43.8868 31.8869 43.7749C32.1441 43.6153 32.0717 42.8787 31.7688 42.5748C31.4686 42.2736 31.3585 42.2432 31.1426 42.4024H31.1426ZM64.7638 42.3453C64.7959 42.3726 65.041 42.4355 65.3089 42.4848C65.6515 42.5478 65.734 42.5338 65.5872 42.4371C65.3985 42.3131 64.6259 42.2269 64.7638 42.3453V42.3453ZM63.3427 42.8192C63.1697 43.0407 63.1746 43.0455 63.3953 42.8719C63.6272 42.6895 63.7008 42.5748 63.5863 42.5748C63.5574 42.5748 63.4477 42.6849 63.3427 42.8192ZM64.264 42.7165C64.2157 42.7946 64.1141 42.8201 64.038 42.7729C63.9619 42.7258 63.7784 42.7973 63.6301 42.9319C63.277 43.2525 63.2768 43.9165 63.6297 44.106C64.0399 44.3262 64.1578 44.2782 63.8091 44.0331C63.4387 43.7729 63.4053 43.2393 63.7432 42.9828C63.9504 42.8253 63.9608 42.8271 63.8128 42.9935C63.5779 43.2579 63.5939 43.4126 63.8558 43.4126C63.9751 43.4126 64.0334 43.4765 63.9854 43.5546C63.9373 43.6326 63.8397 43.6604 63.7684 43.6161C63.6972 43.5719 63.6389 43.6012 63.6389 43.6811C63.6389 43.9155 64.3251 44.0205 64.7093 43.8446C65.0136 43.7056 65.0517 43.6195 64.9799 43.2336C64.9017 42.8133 64.9096 42.802 65.103 43.0561C65.2749 43.2816 65.3394 43.2961 65.4834 43.1404C65.6037 43.0103 65.6061 42.9813 65.4914 43.0459C65.4005 43.0974 65.2642 43.0286 65.1886 42.8932C65.1133 42.7578 65.0072 42.6914 64.9532 42.7456C64.899 42.8 64.7417 42.7835 64.6031 42.7092C64.438 42.6205 64.3215 42.623 64.264 42.7165V42.7165ZM67.2298 43.4434C67.1659 44.55 65.8952 45.0824 61.9778 45.6442C61.0983 45.7703 60.4704 45.9086 60.5823 45.9516C61.1867 46.1842 65.438 45.2556 66.5962 44.6381L67.3964 44.2116V43.4631C67.3964 42.5043 67.2847 42.4912 67.2297 43.4434H67.2298ZM61.1827 42.9973C60.3574 43.3192 60.5426 44.6694 61.4122 44.6694C61.623 44.6694 61.8786 44.5593 61.9799 44.425C62.1366 44.2171 62.135 44.2068 61.9691 44.3552C61.6924 44.6029 61.0411 44.5736 60.94 44.3088C60.6339 43.5088 61.1459 42.9264 61.7857 43.3468C62.0206 43.5013 62.1207 43.5205 62.0818 43.4036C61.9769 43.088 61.5014 42.873 61.1827 42.9973ZM64.7522 43.0718C64.7522 43.1915 64.6887 43.25 64.6109 43.2018C64.533 43.1534 64.5053 43.0557 64.5495 42.9841C64.6688 42.7905 64.7522 42.8265 64.7522 43.0718ZM155.129 42.8255C155.129 43.0999 155.497 43.3843 155.612 43.1984C155.661 43.1178 155.598 43.0519 155.47 43.0519C155.321 43.0519 155.267 42.9769 155.318 42.8424C155.362 42.7273 155.338 42.633 155.264 42.633C155.189 42.633 155.129 42.7196 155.129 42.8255ZM64.6131 43.6139C64.6131 43.7612 64.346 43.8233 64.2665 43.6941C64.2185 43.6162 64.2768 43.5523 64.396 43.5523C64.5153 43.5523 64.6131 43.58 64.6131 43.6139H64.6131ZM61.3045 43.9596C61.3254 44.0686 61.4365 44.1832 61.5513 44.2145C61.7211 44.2611 61.7246 44.2469 61.5704 44.1383C61.424 44.0355 61.4715 43.9722 61.7791 43.8611L62.1776 43.7171L61.722 43.7394C61.4115 43.7546 61.2787 43.8247 61.3045 43.9596ZM84.41 44.2549C84.6204 44.354 84.7928 44.4828 84.7928 44.5413C84.7928 44.5998 85.0093 44.7194 85.274 44.8071C86.0517 45.0645 86.4719 45.9718 86.6653 47.8111C86.7253 48.3832 86.7096 48.5838 86.6156 48.4436C86.4292 48.1657 86.3739 48.2606 86.2926 48.998C86.2318 49.5493 86.2414 49.5793 86.3699 49.2424C86.5712 48.7151 86.7513 48.7589 86.6564 49.3122C86.3693 50.9855 85.4881 51.7682 84.7696 50.9879C84.3729 50.557 84.1754 50.1151 84.3795 50.1151C84.4537 50.1151 84.5143 50.0486 84.5143 49.9673C84.5143 49.8859 84.4362 49.8646 84.3404 49.9199C84.2448 49.9751 84.2125 49.9693 84.2686 49.9069C84.3248 49.8447 84.2706 49.7201 84.1482 49.6303C83.6949 49.2977 83.7749 45.5072 84.2351 45.5072C84.2957 45.5072 84.3802 45.4163 84.4228 45.3049C84.4731 45.1735 84.4334 45.1282 84.3094 45.176C83.8499 45.353 83.5161 46.7507 83.5112 48.5185C83.5092 49.2761 83.446 49.8778 83.3632 49.9292C83.2795 49.9809 83.2606 49.9508 83.3182 49.8575C83.4083 49.711 83.2349 49.6314 82.9385 49.6831C82.8753 49.6942 82.8574 49.6484 82.8988 49.5812C82.9401 49.5142 82.848 49.3236 82.694 49.1577L82.414 48.8563L82.7683 48.7212C82.9633 48.6468 83.1227 48.5268 83.1227 48.4545C83.1227 48.1091 82.9232 47.881 82.6207 47.881C82.2579 47.881 82.2437 47.8222 82.3755 46.8582C82.4484 46.3245 82.5017 46.2348 82.6885 46.331C83.2336 46.6113 83.5155 45.9324 82.9746 45.6421C82.7394 45.5157 82.7049 45.4074 82.7841 45.0457C83.0094 44.0166 83.4492 43.8027 84.41 44.2549V44.2549ZM83.2265 44.2854C83.1553 44.4974 83.5189 44.7985 83.8533 44.8045C84.1891 44.8107 84.1584 44.5888 83.7875 44.3283C83.4132 44.0652 83.3032 44.0568 83.2265 44.2854H83.2265ZM29.6812 44.6507C29.6812 46.6093 55.0169 48.178 58.0044 46.2716C46.4146 47.9348 30.5862 45.7195 29.6812 44.6507ZM85.2102 45.5072C85.2102 45.7376 85.2728 45.9261 85.3493 45.9261C85.4258 45.9261 85.4885 45.7376 85.4885 45.5072C85.4885 45.2768 85.4258 45.0883 85.3493 45.0883C85.2728 45.0883 85.2102 45.2768 85.2102 45.5072ZM85.906 45.9067C85.906 46.2625 85.864 46.3006 85.5233 46.2529C85.1616 46.2024 85.1579 46.2071 85.4571 46.3387C85.6311 46.4154 85.8232 46.6134 85.8842 46.7788C85.9641 46.9951 86.0008 46.8589 86.0157 46.2932C86.027 45.8609 86.0069 45.5072 85.9711 45.5072C85.9354 45.5072 85.906 45.6871 85.906 45.9067ZM84.5895 45.9436C84.6565 46.1558 84.6355 46.2107 84.5153 46.1363C84.389 46.0579 84.3908 46.1133 84.5224 46.3602L84.6974 46.6883L84.8325 46.3848C84.9829 46.0464 84.8832 45.6469 84.6486 45.6469C84.5559 45.6469 84.5325 45.7639 84.5895 45.9436ZM86.3558 47.1828C86.3558 47.4517 86.3845 47.5616 86.4194 47.4272C86.4545 47.2929 86.4545 47.0728 86.4194 46.9385C86.3845 46.8041 86.3558 46.914 86.3558 47.1828ZM84.1741 47.0307C84.1263 47.1083 84.1026 47.4002 84.1215 47.6796L84.1556 48.1879L84.4045 47.8794C84.5414 47.7097 84.6535 47.4912 84.6535 47.394C84.6535 47.1378 84.2816 46.8561 84.1741 47.0307ZM85.1437 47.863C85.036 48.5017 85.2741 49.1294 85.5274 48.8753C85.7851 48.6168 85.7374 47.4085 85.4672 47.3538C85.2953 47.3189 85.2137 47.4471 85.1437 47.863V47.863ZM85.4443 48.6054C85.4 48.7167 85.367 48.6837 85.3603 48.5209C85.3544 48.3737 85.3872 48.2913 85.4334 48.3377C85.4796 48.3842 85.4847 48.5046 85.4443 48.6054ZM84.195 48.9632C84.1086 49.4139 84.1485 49.4805 84.4387 49.3687C84.7079 49.2652 84.7272 48.5791 84.461 48.5791C84.3551 48.5791 84.2353 48.7521 84.195 48.9632ZM84.687 49.4151C84.4763 49.7535 84.4661 49.8823 84.6591 49.7625C84.7538 49.7038 84.7717 49.8094 84.7108 50.0685C84.5699 50.6674 84.5716 50.704 84.7413 50.767C84.8278 50.7992 84.9404 50.6582 84.9915 50.4539C85.1012 50.0157 85.2395 50.0989 85.2967 50.6371C85.3287 50.9378 85.306 50.9755 85.191 50.8119C85.0709 50.641 85.0594 50.6495 85.1276 50.8597C85.1729 51.0003 85.2102 51.1417 85.2102 51.1739C85.2102 51.3993 85.4866 51.1591 85.5988 50.8361C85.7228 50.4796 85.6905 50.4033 85.2766 50.0718C84.9452 49.8065 84.8373 49.6246 84.8905 49.4207C84.9841 49.062 84.908 49.06 84.687 49.4151ZM40.9318 50.4803C40.9928 52.066 40.5936 51.9156 45.0118 52.0156L48.8485 52.1024L48.9447 51.7174C48.9976 51.5058 48.999 50.9952 48.9476 50.5833C48.8836 50.0693 48.9085 49.7683 49.0267 49.6254C49.1783 49.4423 48.9484 49.4165 47.1293 49.4139C45.9909 49.4121 44.12 49.3723 42.9717 49.3251L40.8838 49.2395L40.9318 50.4803L40.9318 50.4803ZM85.8969 49.9924C85.7753 50.2204 85.7777 50.2645 85.9069 50.1843C86.0292 50.1085 86.0476 50.1705 85.9748 50.4118C85.9059 50.6402 85.9198 50.7 86.0197 50.6038C86.0994 50.5271 86.2072 50.2914 86.2591 50.0802C86.3729 49.6179 86.1284 49.5586 85.8969 49.9924ZM48.7042 50.4991C48.6693 50.6335 48.6407 50.5236 48.6407 50.2548C48.6407 49.986 48.6693 49.876 48.7042 50.0104C48.7394 50.1447 48.7394 50.3648 48.7042 50.4991Z" fill="#D2EBF4"/>
<path d="M48.2254 12.397C48.6811 12.6428 49.2496 12.4715 49.4946 12.0142C49.7397 11.557 49.5689 10.9866 49.1132 10.7408C47.1053 9.65593 45.0932 8.93068 43.1114 8.51338C37.9737 7.43158 33.0657 8.42711 28.9625 10.5902C24.8712 12.747 21.575 16.0739 19.6497 19.6613C19.0207 20.8331 18.5359 22.0369 18.2153 23.2409C9.79054 23.3119 4.33741 27.4358 1.8363 32.8506C0.780597 35.1363 0.257535 37.6534 0.264721 40.1913C0.272042 42.7284 0.808148 45.2839 1.87024 47.6479C4.62117 53.7713 10.8734 58.6424 20.5743 58.6424C21.0928 58.6424 21.5134 58.2204 21.5134 57.7001C21.5134 57.1799 21.0928 56.7579 20.5743 56.7579C11.7261 56.7579 6.05247 52.3793 3.57971 46.875C2.62422 44.7485 2.14215 42.458 2.1355 40.1914C2.12898 37.9255 2.59601 35.6786 3.53831 33.6382C5.82249 28.693 10.9411 24.9624 18.9352 25.1219L19.7112 25.1374L19.8706 24.3748C20.1364 23.1042 20.6234 21.8134 21.3003 20.5521C23.0577 17.2777 26.0783 14.2345 29.8357 12.2539C33.5811 10.2794 38.055 9.3693 42.73 10.3536C44.537 10.7341 46.3788 11.3994 48.2255 12.397L48.2254 12.397Z" fill="#424B75"/>
<path d="M95.4788 58.8713C95.9953 58.8713 96.4142 58.4511 96.4142 57.9328C96.4142 57.4145 95.9953 56.9943 95.4788 56.9943L19.9369 56.7615C19.4203 56.7615 19.0015 57.1818 19.0015 57.7C19.0015 58.2183 19.4203 58.6386 19.9369 58.6386L95.4788 58.8713Z" fill="#424B75"/>
<path d="M20.8471 28.8299C21.3636 28.8502 21.799 28.4466 21.8192 27.9283C21.8394 27.41 21.4371 26.9732 20.9206 26.9529C13.5998 26.6386 8.59614 30.1235 6.24541 34.7194C5.29418 36.5793 4.78084 38.6219 4.72733 40.6695C4.67369 42.7214 5.0811 44.7787 5.97124 46.6625C8.11805 51.2061 13.0351 54.7365 21.0046 54.7365H39.4185C39.937 54.7365 40.3576 54.3145 40.3576 53.7942C40.3576 53.274 39.937 52.852 39.4185 52.852H21.0046C13.8756 52.852 9.52488 49.7949 7.6658 45.8602C6.9017 44.2433 6.55206 42.4764 6.59811 40.7136C6.6443 38.9462 7.08817 37.1815 7.91069 35.5733C9.95409 31.5783 14.3576 28.5513 20.8471 28.83L20.8471 28.8299Z" fill="#424B75"/>
<path d="M38.3105 45.0748C36.2298 45.0748 34.4624 44.6976 33.0084 43.9429C31.5544 43.1884 30.2508 42.0817 29.0977 40.6229L32.0307 37.68C32.7578 38.7364 33.6226 39.5602 34.6253 40.1512C35.6281 40.7423 36.9066 41.0378 38.4609 41.0378C39.9149 41.0378 41.0743 40.736 41.9393 40.1324C42.8041 39.5287 43.2366 38.6986 43.2366 37.6423C43.2366 36.7619 43.011 36.045 42.5596 35.4917C42.1084 34.9383 41.513 34.4793 40.7735 34.1146C40.034 33.7499 39.2192 33.4229 38.3292 33.1336C37.4394 32.8444 36.5494 32.5174 35.6595 32.1527C34.7695 31.788 33.9548 31.3289 33.2152 30.7756C32.4757 30.2222 31.8803 29.5054 31.4291 28.625C30.9777 27.7447 30.7522 26.6254 30.7522 25.2671C30.7522 23.7077 31.1345 22.3808 31.899 21.2867C32.6637 20.1925 33.6978 19.3563 35.0013 18.7778C36.305 18.1992 37.7589 17.91 39.3634 17.91C41.0932 17.91 42.6411 18.2495 44.0074 18.9287C45.3737 19.6078 46.483 20.4755 47.3353 21.5319L44.4022 24.4749C43.6502 23.6197 42.8668 22.9846 42.052 22.5695C41.2373 22.1545 40.3034 21.947 39.2505 21.947C37.947 21.947 36.9255 22.2111 36.1859 22.7393C35.4464 23.2675 35.0765 24.0095 35.0765 24.9653C35.0765 25.7702 35.3023 26.4178 35.7534 26.9083C36.2046 27.3988 36.8001 27.8139 37.5396 28.1534C38.2792 28.493 39.0939 28.8137 39.9839 29.1155C40.8737 29.4174 41.7637 29.7568 42.6537 30.1342C43.5436 30.5115 44.3584 30.9957 45.0979 31.5867C45.8375 32.1778 46.4328 32.9387 46.884 33.8693C47.3353 34.7999 47.5609 35.9696 47.5609 37.3782C47.5609 39.7425 46.7274 41.6164 45.0603 42.9998C43.3932 44.3832 41.1432 45.0748 38.3104 45.0748L38.3105 45.0748ZM62.7904 44.6976L55.1569 35.454L62.7528 26.5877H67.6789L58.9548 36.5481L59.1428 34.1712L68.0548 44.6975H62.7904L62.7904 44.6976ZM51.3213 44.6976V17.5327H55.4577V44.6976H51.3213ZM76.3653 44.8862L68.6566 26.5877H73.2066L78.4711 40.0192H77.1549L82.7203 26.5877H87.3079L78.9223 44.8862H76.3653ZM70.988 52.2433L76.5909 40.6605L78.9223 44.8862L75.5756 52.2433H70.988V52.2433ZM104.718 44.6976V19.0418H109.043V44.6976H104.718ZM96.1447 22.2488V18.2873H117.616V22.2488H96.1447ZM129.085 45.0748C127.331 45.0748 125.739 44.6535 124.31 43.8109C122.881 42.9684 121.746 41.8302 120.907 40.3964C120.067 38.9627 119.647 37.3656 119.647 35.6049C119.647 33.8442 120.067 32.2597 120.907 30.8511C121.746 29.4425 122.881 28.3169 124.31 27.4743C125.739 26.6317 127.331 26.2104 129.085 26.2104C130.865 26.2104 132.47 26.6254 133.899 27.4555C135.328 28.2856 136.462 29.411 137.302 30.8321C138.142 32.2534 138.561 33.8442 138.561 35.6049C138.561 37.3657 138.142 38.9628 137.302 40.3964C136.462 41.8302 135.328 42.9684 133.899 43.8109C132.47 44.6535 130.865 45.0748 129.085 45.0748V45.0748ZM129.085 41.0756C130.113 41.0756 131.022 40.843 131.812 40.3776C132.601 39.9123 133.215 39.2645 133.654 38.4346C134.093 37.6045 134.312 36.6613 134.312 35.6049C134.312 34.5485 134.087 33.6179 133.635 32.8129C133.184 32.0081 132.57 31.3729 131.793 30.9077C131.016 30.4423 130.113 30.2097 129.085 30.2097C128.083 30.2097 127.186 30.4423 126.397 30.9077C125.607 31.3729 124.993 32.0081 124.554 32.8129C124.115 33.6179 123.896 34.5485 123.896 35.6049C123.896 36.6613 124.115 37.6045 124.554 38.4346C124.993 39.2645 125.607 39.9123 126.397 40.3776C127.186 40.843 128.083 41.0756 129.085 41.0756ZM149.391 45.0748C147.862 45.0748 146.502 44.7354 145.311 44.0562C144.121 43.377 143.193 42.4401 142.529 41.2453C141.864 40.0506 141.532 38.6735 141.532 37.114V26.5877H145.669V36.9254C145.669 37.8058 145.813 38.554 146.101 39.1703C146.389 39.7866 146.815 40.2581 147.38 40.5851C147.944 40.9122 148.614 41.0756 149.391 41.0756C150.595 41.0756 151.516 40.7172 152.155 40.0004C152.794 39.2835 153.114 38.2585 153.114 36.9254V26.5877H157.25V37.114C157.25 38.6986 156.918 40.0884 156.254 41.2831C155.59 42.4779 154.668 43.4085 153.49 44.075C152.312 44.7416 150.946 45.0748 149.391 45.0748ZM161.424 44.6976V26.5877H165.561V44.6976H161.424ZM165.561 34.624L164.132 33.9071C164.132 31.6183 164.639 29.7631 165.655 28.342C166.67 26.9209 168.205 26.2103 170.261 26.2103C171.164 26.2103 171.978 26.3739 172.705 26.7008C173.432 27.0279 174.109 27.556 174.736 28.2855L172.028 31.0774C171.703 30.7253 171.339 30.4737 170.938 30.3228C170.537 30.1719 170.073 30.0965 169.547 30.0965C168.394 30.0965 167.441 30.4611 166.689 31.1907C165.937 31.9201 165.561 33.0645 165.561 34.624V34.624Z" fill="#424B75"/>
<path d="M104.368 58.7753V51.4742H105.199L108.224 56.4703H107.684L110.709 51.4742H111.54V58.7753H110.345V53.5811L110.615 53.654L108.37 57.3568H107.538L105.293 53.654L105.563 53.5811V58.7753H104.368H104.368ZM119.316 58.8796C118.796 58.8796 118.311 58.7822 117.861 58.5875C117.41 58.3928 117.015 58.1233 116.676 57.7792C116.336 57.4351 116.071 57.0351 115.881 56.5798C115.69 56.1243 115.595 55.6358 115.595 55.1143C115.595 54.5928 115.69 54.1061 115.881 53.6541C116.071 53.2022 116.335 52.8041 116.671 52.4598C117.007 52.1157 117.398 51.848 117.845 51.6567C118.292 51.4655 118.776 51.3699 119.295 51.3699C119.815 51.3699 120.299 51.4655 120.746 51.6567C121.193 51.848 121.586 52.1157 121.925 52.4598C122.265 52.8041 122.53 53.2039 122.721 53.6593C122.911 54.1148 123.007 54.6033 123.007 55.1247C123.007 55.6462 122.911 56.1347 122.721 56.5902C122.53 57.0457 122.267 57.4438 121.931 57.7844C121.595 58.1251 121.203 58.3928 120.756 58.5875C120.309 58.7822 119.829 58.8796 119.316 58.8796H119.316ZM119.295 57.7322C119.788 57.7322 120.219 57.621 120.59 57.3985C120.96 57.176 121.251 56.8683 121.463 56.4755C121.674 56.0826 121.78 55.6288 121.78 55.1143C121.78 54.7319 121.719 54.3825 121.598 54.0662C121.477 53.7497 121.305 53.4751 121.083 53.2421C120.862 53.0092 120.6 52.8301 120.299 52.705C119.997 52.5799 119.663 52.5172 119.295 52.5172C118.81 52.5172 118.382 52.6267 118.012 52.8458C117.641 53.0649 117.35 53.3691 117.138 53.7584C116.927 54.1478 116.821 54.5998 116.821 55.1143C116.821 55.4968 116.882 55.8497 117.003 56.173C117.125 56.4963 117.294 56.7727 117.513 57.0021C117.731 57.2316 117.992 57.4106 118.298 57.5394C118.602 57.668 118.935 57.7322 119.295 57.7322ZM127.071 58.7753V51.4742H128.267V58.7753H127.071ZM127.892 58.7753V57.6801H131.697V58.7753H127.892ZM136.458 58.7753V57.6801H138.371C138.87 57.6801 139.308 57.5724 139.686 57.3568C140.064 57.1413 140.358 56.8406 140.57 56.4546C140.781 56.0687 140.887 55.6219 140.887 55.1143C140.887 54.6137 140.779 54.1722 140.564 53.7897C140.35 53.4073 140.053 53.1083 139.676 52.8928C139.298 52.6772 138.863 52.5695 138.371 52.5695H136.458V51.4742H138.402C138.929 51.4742 139.417 51.5663 139.868 51.7506C140.318 51.9349 140.712 52.1922 141.048 52.5225C141.384 52.8527 141.646 53.2386 141.833 53.6802C142.02 54.1217 142.113 54.6033 142.113 55.1247C142.113 55.6393 142.02 56.1191 141.833 56.5641C141.646 57.0091 141.386 57.3968 141.053 57.727C140.72 58.0574 140.329 58.3146 139.878 58.4989C139.428 58.6831 138.943 58.7753 138.423 58.7753H136.458V58.7753ZM135.637 58.7753V51.4742H136.832V58.7753H135.637ZM149.525 58.8796C149.006 58.8796 148.52 58.7822 148.07 58.5875C147.619 58.3928 147.224 58.1233 146.885 57.7792C146.545 57.4351 146.28 57.0351 146.09 56.5798C145.899 56.1243 145.804 55.6358 145.804 55.1143C145.804 54.5928 145.899 54.1061 146.09 53.6541C146.28 53.2022 146.544 52.8041 146.88 52.4598C147.216 52.1157 147.607 51.848 148.054 51.6567C148.501 51.4655 148.985 51.3699 149.504 51.3699C150.024 51.3699 150.508 51.4655 150.955 51.6567C151.402 51.848 151.795 52.1157 152.134 52.4598C152.474 52.8041 152.739 53.2039 152.93 53.6593C153.12 54.1148 153.216 54.6033 153.216 55.1247C153.216 55.6462 153.12 56.1347 152.93 56.5902C152.739 57.0457 152.476 57.4438 152.14 57.7844C151.804 58.1251 151.412 58.3928 150.965 58.5875C150.518 58.7822 150.038 58.8796 149.525 58.8796H149.525ZM149.504 57.7322C149.997 57.7322 150.428 57.621 150.799 57.3985C151.169 57.176 151.46 56.8683 151.672 56.4755C151.883 56.0826 151.989 55.6288 151.989 55.1143C151.989 54.7319 151.928 54.3825 151.807 54.0662C151.686 53.7497 151.514 53.4751 151.292 53.2421C151.071 53.0092 150.809 52.8301 150.508 52.705C150.206 52.5799 149.872 52.5172 149.504 52.5172C149.019 52.5172 148.591 52.6267 148.221 52.8458C147.85 53.0649 147.559 53.3691 147.347 53.7584C147.136 54.1478 147.03 54.5998 147.03 55.1143C147.03 55.4968 147.091 55.8497 147.212 56.173C147.334 56.4963 147.503 56.7727 147.722 57.0021C147.94 57.2316 148.201 57.4106 148.507 57.5394C148.811 57.668 149.144 57.7322 149.504 57.7322H149.504ZM159.681 58.7753L156.74 51.4742H158.039L160.336 57.3881H159.879L162.197 51.4742H163.476L160.513 58.7753H159.681ZM166.823 58.7753L169.817 51.4742H170.649L173.622 58.7753H172.333L170.004 52.8614H170.441L168.091 58.7753H166.823ZM168.299 57.3672V56.3242H172.156V57.3672H168.299Z" fill="#424B75"/>
</g>
<defs>
<clipPath id="clip0_29_11">
<rect width="175" height="59" fill="white"/>
</clipPath>
</defs>
</svg>
