<svg width="19" height="19" viewBox="0 0 19 19" fill="none" xmlns="http://www.w3.org/2000/svg">
<path d="M8.2342 0C3.69643 0 0 3.69642 0 8.23421C0 12.772 3.69643 16.4756 8.2342 16.4756C10.1724 16.4756 11.955 15.7963 13.3638 14.6686L16.7937 18.0966C16.9668 18.2626 17.198 18.3541 17.4377 18.3517C17.6775 18.3492 17.9067 18.253 18.0764 18.0836C18.246 17.9141 18.3426 17.685 18.3454 17.4453C18.3482 17.2055 18.257 16.9742 18.0913 16.8009L14.6614 13.371C15.7901 11.96 16.4702 10.1747 16.4702 8.23421C16.4702 3.69642 12.772 0 8.2342 0ZM8.2342 1.83025C11.7828 1.83025 14.6382 4.68557 14.6382 8.23421C14.6382 11.7829 11.7828 14.6453 8.2342 14.6453C4.68555 14.6453 1.83022 11.7829 1.83022 8.23421C1.83022 4.68557 4.68555 1.83025 8.2342 1.83025Z" fill="#424B75"/>
</svg>
