<svg width="22" height="14" viewBox="0 0 22 14" fill="none" xmlns="http://www.w3.org/2000/svg">
<path d="M19.768 0H14.2456V13.9997H19.768C20.6518 13.9997 21.3683 13.2833 21.3683 12.3994V1.60031C21.3683 0.716456 20.6518 0 19.768 0Z" fill="#FF4B55"/>
<path d="M14.2459 0.000167847H7.12305V14H14.2459V0.000167847Z" fill="#FFE15A"/>
<path d="M1.60031 0C0.716456 0 0 0.716456 0 1.60031V12.3995C0 13.2833 0.716456 13.9998 1.60031 13.9998H7.1227V0H1.60031Z" fill="#41479B"/>
<path d="M11.9896 9.52476L12.1729 9.37534L11.3377 8.35106L11.1544 8.50048L11.9896 9.52476Z" fill="#FFCD5A"/>
<path d="M11.4298 9.02632L11.7964 8.72769L11.429 8.27674L11.0624 8.57536L11.4298 9.02632Z" fill="#FFBE5A"/>
<path d="M10.3161 8.50056L10.1328 8.35114L9.29766 9.37541L9.48093 9.52484L10.3161 8.50056Z" fill="#FFCD5A"/>
<path d="M10.4076 8.57542L10.041 8.27679L9.67364 8.72775L10.0402 9.02638L10.4076 8.57542Z" fill="#FFBE5A"/>
<path d="M10.4397 8.73549L9.84863 9.91766L10.6761 10.5087V8.85368L10.4397 8.73549Z" fill="#FFE15A"/>
<path d="M10.9122 8.73549L11.5033 9.91766L10.6758 10.5087V8.85368L10.9122 8.73549Z" fill="#FFCD5A"/>
<path d="M9.021 8.7355V5.66176H9.37566C9.37566 5.66176 9.37566 7.67152 9.37566 8.02614C9.37566 8.38076 9.021 8.7355 9.021 8.7355Z" fill="#FFBE5A"/>
<path d="M8.78418 9.32659V5.66171H9.13884C9.13884 5.66171 9.13884 8.26256 9.13884 8.61722C9.1388 8.97188 8.78418 9.32659 8.78418 9.32659Z" fill="#FFCD5A"/>
<path d="M8.54785 9.79948V5.66176H8.90251C8.90251 5.66176 8.90251 8.7355 8.90251 9.09016C8.90251 9.44478 8.54785 9.79948 8.54785 9.79948Z" fill="#FFE15A"/>
<path d="M9.37549 5.77994C9.37549 5.77994 9.37549 7.46455 9.37549 8.02613C9.37549 8.61726 10.2326 8.53842 10.6759 8.97187C11.1192 8.53838 11.9763 8.61721 11.9763 8.02613C11.9763 7.46459 11.9763 5.77994 11.9763 5.77994H9.37549Z" fill="#FF4B55"/>
<path d="M9.37549 7.08039C9.37549 7.45467 9.37549 7.81776 9.37549 8.02618C9.37549 8.61731 10.2326 8.53847 10.6759 8.97193C11.1192 8.53843 11.9763 8.61727 11.9763 8.02614C11.9763 7.81776 11.9763 7.45463 11.9763 7.08035L9.37549 7.08039Z" fill="#41479B"/>
<path d="M10.676 8.61722L10.3214 8.3808V8.26257L10.4396 8.14437V7.43501L10.085 7.19859L10.4396 6.72569H10.5578L10.676 6.84397L10.7943 6.72569H10.9125L11.2672 7.19859L10.9125 7.43501V8.14437L11.0307 8.26257V8.3808L10.676 8.61722Z" fill="#FFE15A"/>
<path d="M10.2033 5.89819C10.2033 5.89819 9.73047 6.01643 9.73047 6.48932C9.73047 6.96217 10.2033 7.19864 10.2033 7.19864L10.4397 6.84398C9.73043 6.60751 10.2033 5.89819 10.2033 5.89819Z" fill="#FFE15A"/>
<path d="M11.1485 5.89819C11.1485 5.89819 11.6214 6.01643 11.6214 6.48932C11.6214 6.96217 11.1485 7.19864 11.1485 7.19864L10.9121 6.84398C11.6214 6.60751 11.1485 5.89819 11.1485 5.89819Z" fill="#FFE15A"/>
<path d="M9.49365 7.08041L9.73008 7.1986L9.96655 7.08041L9.73008 6.96217L9.49365 7.08041Z" fill="#FFE15A"/>
<path d="M11.3848 7.08041L11.6212 7.1986L11.8577 7.08041L11.6212 6.96217L11.3848 7.08041Z" fill="#FFE15A"/>
<path d="M10.6754 5.95728L10.7614 6.04534L10.8844 6.04383L10.883 6.16687L10.971 6.25284L10.883 6.33881L10.8844 6.4618L10.7614 6.46034L10.6754 6.5484L10.5895 6.46034L10.4664 6.4618L10.4679 6.33881L10.3799 6.25284L10.4679 6.16687L10.4664 6.04383L10.5895 6.04534L10.6754 5.95728Z" fill="#FFE15A"/>
<path d="M9.8727 7.5967L9.95793 7.69152L10.0765 7.64453C10.1378 7.6202 10.1954 7.68693 10.1624 7.74411L10.0986 7.8545L10.1799 7.95274C10.222 8.00357 10.1763 8.07903 10.1118 8.06525L9.98706 8.03863L9.91878 8.14635C9.88343 8.2021 9.79758 8.18194 9.7907 8.11625L9.77742 7.98942L9.65393 7.95779C9.58995 7.94139 9.58261 7.85354 9.64291 7.82674L9.75944 7.77499L9.75138 7.64774C9.74733 7.58172 9.82859 7.54758 9.8727 7.5967Z" fill="#FFE15A"/>
<path d="M11.4477 7.86622C11.4738 7.73176 11.5848 7.63656 11.7141 7.6222C11.6875 7.60793 11.6593 7.59612 11.6282 7.59011C11.4626 7.55802 11.3024 7.66623 11.2703 7.83179C11.2382 7.9974 11.3464 8.15766 11.512 8.18975C11.5431 8.1958 11.5737 8.19543 11.6036 8.19209C11.489 8.13044 11.4217 8.00069 11.4477 7.86622Z" fill="#FFE15A"/>
<path d="M10.2027 5.77995L10.4392 4.59773L9.96631 4.24307L10.0845 4.12484H10.321C10.321 4.12484 10.4392 4.00661 10.6756 4.00661C10.9121 4.00661 11.1485 4.12484 11.1485 4.47946C11.1485 4.83408 11.2667 5.77986 11.2667 5.77986H10.2027V5.77995Z" fill="#FFE15A"/>
<path d="M9.37568 5.30705C9.11451 5.30705 8.90283 5.51877 8.90283 5.7799H9.84862C9.84858 5.51877 9.63682 5.30705 9.37568 5.30705Z" fill="#FFAA5A"/>
<path d="M9.25717 5.77994H8.54785V4.99303C8.54785 4.83999 8.67193 4.71596 8.82493 4.71596H8.9801C9.13314 4.71596 9.25717 4.84003 9.25717 4.99303V5.77994Z" fill="#FFBE5A"/>
<path d="M12.3312 8.7355V5.66176H11.9766C11.9766 5.66176 11.9766 7.67152 11.9766 8.02614C11.9766 8.38076 12.3312 8.7355 12.3312 8.7355Z" fill="#FFBE5A"/>
<path d="M12.5671 9.32659V5.66171H12.2124C12.2124 5.66171 12.2124 8.26256 12.2124 8.61722C12.2124 8.97188 12.5671 9.32659 12.5671 9.32659Z" fill="#FFCD5A"/>
<path d="M12.8039 9.79948V5.66176H12.4492C12.4492 5.66176 12.4492 8.7355 12.4492 9.09016C12.4492 9.44478 12.8039 9.79948 12.8039 9.79948Z" fill="#FFE15A"/>
<path d="M11.9764 5.30705C12.2375 5.30705 12.4492 5.51877 12.4492 5.7799H11.5034C11.5035 5.51877 11.7152 5.30705 11.9764 5.30705Z" fill="#FFAA5A"/>
<path d="M12.0942 5.77994H12.8036V4.99303C12.8036 4.83999 12.6795 4.71596 12.5265 4.71596H12.3714C12.2183 4.71596 12.0943 4.84003 12.0943 4.99303L12.0942 5.77994Z" fill="#FFBE5A"/>
<path d="M13.4635 7.1265L13.312 7.03427L11.6565 9.75295L11.8079 9.84518L13.4635 7.1265Z" fill="#FFAA5A"/>
<path d="M12.0197 9.68871L12.3149 9.31934L12.0261 9.08843L11.7308 9.4578L12.0197 9.68871Z" fill="#FFE15A"/>
<path d="M13.5122 7.15716L13.2598 7.00349L12.9051 7.58615L13.1576 7.73981L13.5122 7.15716Z" fill="#FFCD5A"/>
<path d="M9.77567 9.75044L8.10693 7.16911L8.00764 7.2333L9.67638 9.81463L9.77567 9.75044Z" fill="#73AF00"/>
<path d="M9.15736 8.39322C9.11496 8.4413 9.08683 8.51421 9.07974 8.59826C9.02143 8.53941 8.95449 8.50194 8.89214 8.49188C8.8757 8.55285 8.88238 8.62931 8.91213 8.7066C8.83254 8.67856 8.75458 8.67426 8.69336 8.69321C8.7106 8.78035 8.78159 8.87492 8.89039 8.93982C8.99915 9.00476 9.11613 9.02228 9.20098 8.99607L9.22527 8.98038C9.28399 8.91373 9.316 8.79992 9.30147 8.67409C9.28682 8.54826 9.22969 8.44472 9.15736 8.39322Z" fill="#73AF00"/>
<path d="M9.21247 9.10677C9.27777 9.10677 9.33071 9.05383 9.33071 8.98853C9.33071 8.92324 9.27777 8.8703 9.21247 8.8703C9.14717 8.8703 9.09424 8.92324 9.09424 8.98853C9.09424 9.05383 9.14717 9.10677 9.21247 9.10677Z" fill="#FF4B55"/>
<path d="M8.70814 7.69826C8.66574 7.74634 8.63761 7.81925 8.63052 7.9033C8.57222 7.84445 8.50527 7.80698 8.44292 7.79692C8.42648 7.85789 8.43316 7.93435 8.46291 8.01164C8.38333 7.9836 8.30537 7.9793 8.24414 7.99825C8.26138 8.08539 8.33237 8.17996 8.44117 8.24485C8.54993 8.30979 8.66691 8.32732 8.75176 8.30111L8.77605 8.28542C8.83477 8.21877 8.86678 8.10496 8.85225 7.97913C8.83765 7.85326 8.78051 7.74972 8.70814 7.69826Z" fill="#73AF00"/>
<path d="M8.76374 8.41188C8.82904 8.41188 8.88198 8.35895 8.88198 8.29365C8.88198 8.22835 8.82904 8.17542 8.76374 8.17542C8.69844 8.17542 8.64551 8.22835 8.64551 8.29365C8.64551 8.35895 8.69844 8.41188 8.76374 8.41188Z" fill="#FF4B55"/>
<path d="M8.25893 7.0033C8.21652 7.05137 8.18839 7.12428 8.1813 7.20834C8.123 7.14949 8.05605 7.11201 7.9937 7.10196C7.97726 7.16293 7.98394 7.23939 8.01369 7.31668C7.93411 7.28863 7.85615 7.28434 7.79492 7.30328C7.81216 7.39042 7.88315 7.48499 7.99195 7.54989C8.10071 7.61483 8.21769 7.63236 8.30254 7.60615L8.32683 7.59046C8.38555 7.52381 8.41756 7.41 8.40304 7.28417C8.38834 7.1583 8.33125 7.05475 8.25893 7.0033Z" fill="#73AF00"/>
<path d="M8.31452 7.717C8.37982 7.717 8.43276 7.66406 8.43276 7.59876C8.43276 7.53346 8.37982 7.48053 8.31452 7.48053C8.24922 7.48053 8.19629 7.53346 8.19629 7.59876C8.19629 7.66406 8.24922 7.717 8.31452 7.717Z" fill="#FF4B55"/>
<path d="M9.73961 9.45831L9.44434 9.08893L9.15548 9.31984L9.45075 9.68921L9.73961 9.45831Z" fill="#FFE15A"/>
<path d="M10.085 3.77048H9.9668V4.59803H10.085V3.77048Z" fill="#FFE15A"/>
<path d="M10.2028 3.88858H9.84814V4.00681H10.2028V3.88858Z" fill="#FFE15A"/>
<path d="M9.96631 4.24305L10.321 4.50907V4.12486H10.0845L9.96631 4.24305Z" fill="#FF875A"/>
<path d="M10.0846 3.77018V3.88841H10.2028V4.00665H10.0846V4.12488H10.321C10.321 4.12488 10.4392 4.00665 10.6757 4.00665C10.9121 4.00665 11.1485 4.12488 11.1485 4.4795C11.1485 4.83416 11.2667 5.7799 11.2667 5.7799H11.5032C11.5032 5.51873 11.7149 5.30705 11.976 5.30705C12.0171 5.30705 12.0562 5.3139 12.0943 5.32379V5.07063C12.0943 4.87477 12.2531 4.71597 12.4489 4.71597C12.6448 4.71597 12.8036 4.87477 12.8036 5.07063V5.66175V5.77999V7.8678L12.9562 7.61701L12.9058 7.5863L13.2604 7.0036L13.3109 7.03432L13.3866 7.08047L13.5129 7.15731L13.1582 7.74L13.1077 7.70929L12.8036 8.20902V9.79964C12.8036 9.79964 12.5213 9.51656 12.4608 9.20338C12.4177 9.14788 12.3679 9.07709 12.3241 8.99671L12.1888 9.21899L12.3146 9.31953L12.0193 9.68892L11.9409 9.62624L11.8073 9.8458L11.6558 9.75357L11.8013 9.5146L11.7307 9.45813L11.8312 9.33238L11.521 8.95193L11.4293 9.02664L11.1535 8.68817C11.0801 8.71768 11.0075 8.7501 10.9377 8.78716L11.503 9.91796L10.6755 10.5091L9.84794 9.91796L10.4133 8.78716C10.3716 8.765 10.3292 8.74401 10.2858 8.7249L10.04 9.02664L9.94827 8.95193L9.63805 9.33238L9.73859 9.45813L9.63818 9.53839L9.7754 9.75065L9.67611 9.81484L9.54536 9.61259L9.44991 9.68888L9.15464 9.31949L9.28732 9.21344L9.21699 9.10464C9.21532 9.10468 9.2137 9.10472 9.21203 9.10472C9.17338 9.10472 9.13553 9.08749 9.11303 9.05264C9.10343 9.03782 9.09826 9.02163 9.09596 9.00527C9.07372 9.00393 9.05118 9.00076 9.02773 8.99517C8.98378 9.07618 8.9337 9.1475 8.89025 9.20338C8.82986 9.5166 8.54753 9.79964 8.54753 9.79964V8.29157C8.51181 8.28034 8.47579 8.26607 8.44036 8.24491C8.3316 8.17997 8.26056 8.0854 8.24333 7.9983C8.2682 7.99062 8.29579 7.98678 8.32517 7.98678C8.36816 7.98678 8.4149 7.99509 8.46214 8.0117C8.44674 7.97163 8.43777 7.93198 8.43481 7.89442L8.31853 7.71455C8.31686 7.71459 8.31524 7.71463 8.31357 7.71463C8.27492 7.71463 8.23707 7.69739 8.21457 7.66255C8.20497 7.64773 8.1998 7.63154 8.19746 7.61518C8.13202 7.61125 8.06032 7.59122 7.99117 7.54999C7.88241 7.48505 7.81138 7.39048 7.79414 7.30338C7.81901 7.2957 7.84664 7.29186 7.87598 7.29186C7.91897 7.29186 7.96571 7.30012 8.01295 7.31678C7.9832 7.23944 7.97652 7.16303 7.99296 7.10205C8.05531 7.11211 8.12226 7.14959 8.18056 7.20843C8.18765 7.12438 8.21578 7.05147 8.25814 7.00339C8.33051 7.05489 8.3876 7.15844 8.40213 7.28431C8.41139 7.36435 8.40021 7.43793 8.37688 7.49924C8.39086 7.50813 8.40351 7.51944 8.41306 7.5343C8.43656 7.57065 8.43572 7.61434 8.41778 7.65044L8.53405 7.83032C8.53856 7.83282 8.54298 7.83583 8.54749 7.83862V5.78011V5.66188V5.07075C8.54749 4.87489 8.70629 4.71609 8.90215 4.71609C9.09801 4.71609 9.25681 4.87489 9.25681 5.07075V5.32391C9.29479 5.31406 9.33393 5.30718 9.37504 5.30718C9.63622 5.30718 9.84789 5.5189 9.84789 5.78003H10.2026L10.439 4.59781L10.3207 4.50917L10.0843 4.33184V4.59786H9.96609V4.00673H9.84785V3.8885H9.96609V3.77026H10.0848M11.9823 9.1432L12.026 9.08857L12.0492 9.10714L12.2398 8.79409C12.2232 8.73621 12.2125 8.67682 12.2125 8.61726C12.2125 8.61146 12.2125 8.60349 12.2125 8.59648C12.1094 8.46076 11.9761 8.24362 11.9761 8.02614C11.9761 8.27512 11.8233 8.40484 11.6141 8.5045L11.7961 8.72782L11.7045 8.80244L11.9823 9.1432ZM9.38038 9.13903L9.44357 9.08853L9.48722 9.14316L9.76509 8.80231L9.67349 8.72769L9.82394 8.54306C9.5714 8.4376 9.37521 8.30839 9.37521 8.02609C9.37521 8.18439 9.30455 8.34236 9.22634 8.46915C9.26349 8.52365 9.29149 8.59335 9.30084 8.67406C9.3101 8.75411 9.29892 8.82769 9.27559 8.889C9.28957 8.89789 9.30222 8.9092 9.31177 8.92405C9.33527 8.9604 9.33443 9.00406 9.31649 9.0402L9.38038 9.13903ZM10.0846 3.68153H9.96634C9.91738 3.68153 9.87769 3.72122 9.87769 3.77018V3.79973H9.84814C9.79919 3.79973 9.7595 3.83942 9.7595 3.88837V4.0066C9.7595 4.05556 9.79919 4.09525 9.84814 4.09525H9.87769V4.59769C9.87769 4.64664 9.91738 4.68633 9.96634 4.68633H10.0846C10.1335 4.68633 10.1732 4.64664 10.1732 4.59769V4.50905L10.2678 4.57995L10.3413 4.63508L10.13 5.69122H9.92974C9.88708 5.42357 9.65466 5.21836 9.37517 5.21836C9.36536 5.21836 9.35555 5.2187 9.34562 5.21928V5.07058C9.34562 4.82614 9.14671 4.62724 8.90227 4.62724C8.65784 4.62724 8.45893 4.82614 8.45893 5.07058V5.66171V5.77994V7.13957C8.42692 7.0513 8.37488 6.97743 8.30964 6.93098C8.29412 6.91992 8.27613 6.91454 8.25831 6.91454C8.23365 6.91454 8.20919 6.92481 8.19179 6.94455C8.16449 6.97555 8.14204 7.01328 8.1253 7.05585C8.08649 7.03482 8.04655 7.02063 8.00715 7.01428C8.0024 7.01349 7.99768 7.01311 7.993 7.01311C7.95357 7.01311 7.91809 7.03949 7.90749 7.07868C7.8971 7.11716 7.89364 7.15939 7.89689 7.20342C7.88992 7.20309 7.88299 7.20292 7.87611 7.20292C7.83771 7.20292 7.80136 7.20814 7.7681 7.21841C7.72474 7.2318 7.69848 7.27579 7.70725 7.32032C7.7302 7.43618 7.81935 7.55045 7.9458 7.62586C8.00415 7.66067 8.0675 7.68454 8.13181 7.69618C8.1344 7.70107 8.1372 7.70582 8.1402 7.71046C8.16929 7.75549 8.21495 7.78646 8.26716 7.79802L8.33176 7.89797C8.32959 7.89793 8.32746 7.89793 8.32534 7.89793C8.28694 7.89793 8.25059 7.90314 8.21733 7.91341C8.17397 7.92681 8.14771 7.9708 8.15648 8.01533C8.17943 8.13118 8.26858 8.24545 8.39503 8.32086C8.41523 8.33293 8.43627 8.34361 8.45897 8.35325V9.79927C8.45897 9.83516 8.48063 9.8675 8.51377 9.88119C8.52474 9.8857 8.53622 9.88791 8.54761 9.88791C8.57074 9.88791 8.59344 9.8789 8.61042 9.86183C8.62249 9.84977 8.90056 9.56793 8.97306 9.24086C9.00285 9.20167 9.0304 9.16215 9.05544 9.12259C9.08399 9.15556 9.12259 9.1783 9.16574 9.1879L9.16958 9.19378L9.09955 9.24979C9.08119 9.26448 9.06938 9.28585 9.06679 9.30926C9.06416 9.33259 9.07096 9.35609 9.08566 9.37445L9.38093 9.74384C9.39562 9.76221 9.41699 9.77402 9.4404 9.77661C9.44365 9.77698 9.44695 9.77715 9.45021 9.77715C9.47024 9.77715 9.48977 9.77039 9.50555 9.75774L9.52441 9.74268L9.60191 9.86258C9.61468 9.88232 9.63476 9.89622 9.65775 9.90114C9.66393 9.90248 9.67015 9.9031 9.67636 9.9031C9.69331 9.9031 9.71009 9.89822 9.72449 9.88887L9.78183 9.85181L9.76885 9.87781C9.74932 9.91683 9.76113 9.96424 9.7966 9.98962L10.6242 10.5807C10.6396 10.5918 10.6576 10.5973 10.6757 10.5973C10.6938 10.5973 10.7118 10.5918 10.7272 10.5807L11.5548 9.98962C11.5903 9.96424 11.6021 9.91688 11.5825 9.87781L11.0568 8.82631C11.0791 8.81579 11.1023 8.80536 11.1267 8.79489L11.3608 9.08214C11.3783 9.10364 11.4038 9.11478 11.4296 9.11478C11.4493 9.11478 11.4691 9.10823 11.4856 9.09483L11.5086 9.07613L11.7175 9.33243L11.6616 9.40229C11.6469 9.42065 11.6402 9.44411 11.6428 9.46748C11.6454 9.49089 11.6572 9.51226 11.6755 9.52695L11.6852 9.53467L11.5803 9.70699C11.5548 9.74881 11.5681 9.80332 11.6099 9.82882L11.7614 9.92105C11.7754 9.92956 11.7913 9.93399 11.8075 9.93399C11.8145 9.93399 11.8216 9.93315 11.8285 9.93144C11.8513 9.92585 11.8711 9.91149 11.8833 9.89138L11.9645 9.75787C11.9809 9.77076 12.0002 9.77702 12.0195 9.77702C12.0455 9.77702 12.0713 9.76559 12.0889 9.74372L12.3841 9.37433C12.395 9.36072 12.4012 9.3449 12.403 9.32884C12.4993 9.61693 12.7301 9.85081 12.7411 9.86174C12.758 9.87873 12.7807 9.88783 12.8039 9.88783C12.8153 9.88783 12.8267 9.88562 12.8377 9.88111C12.8708 9.86738 12.8925 9.83508 12.8925 9.79918V8.23356L13.1403 7.82656C13.1463 7.82781 13.1524 7.82844 13.1584 7.82844C13.1884 7.82844 13.2176 7.81329 13.2343 7.78583L13.5889 7.20313C13.6012 7.18306 13.6049 7.15894 13.5993 7.13607C13.5937 7.11324 13.5793 7.0935 13.5593 7.08127L13.433 7.00443L13.3573 6.95832L13.3067 6.92756C13.2924 6.9188 13.2764 6.91466 13.2608 6.91466C13.2309 6.91466 13.2016 6.92981 13.185 6.95727L12.8926 7.43772V5.77982V5.66158V5.07046C12.8926 4.82602 12.6936 4.62711 12.4492 4.62711C12.2048 4.62711 12.0059 4.82602 12.0059 5.07046V5.21916C11.996 5.21857 11.9861 5.21824 11.9763 5.21824C11.6968 5.21824 11.4644 5.42345 11.4217 5.69109H11.3455C11.3175 5.45834 11.2374 4.76571 11.2374 4.47933C11.2374 4.06532 10.9473 3.91779 10.6759 3.91779C10.4748 3.91779 10.3451 3.99442 10.2895 4.03603H10.2866C10.2898 4.02676 10.2916 4.01683 10.2916 4.00648V3.88824C10.2916 3.83929 10.2519 3.7996 10.203 3.7996H10.1734V3.77005C10.1732 3.72122 10.1335 3.68153 10.0846 3.68153ZM9.32951 8.46902C9.35221 8.42908 9.372 8.38969 9.38902 8.35087C9.46293 8.45008 9.56927 8.52061 9.68246 8.57645L9.60483 8.67173C9.58997 8.68997 9.58296 8.71334 9.58534 8.73675C9.58772 8.76016 9.59928 8.78166 9.61752 8.79647L9.64031 8.81508L9.48234 9.00882C9.47333 9.00439 9.46352 9.00155 9.45334 9.00039C9.45008 9.00001 9.44674 8.99984 9.44353 8.99984C9.43468 8.99984 9.426 9.00118 9.41761 9.00372C9.42166 8.95915 9.4111 8.91441 9.38627 8.87593C9.38326 8.8713 9.38005 8.86675 9.37667 8.86241C9.39245 8.79902 9.3967 8.73145 9.38894 8.66392C9.38093 8.5946 9.3606 8.52824 9.32951 8.46902ZM11.7513 8.53258C11.8294 8.48705 11.9052 8.42937 11.9627 8.35187C12.008 8.45525 12.0675 8.54928 12.1239 8.62603C12.1246 8.6754 12.1314 8.72623 12.1444 8.7802L12.0098 9.00135C12.002 9.00277 11.9943 9.00527 11.9871 9.00882L11.8292 8.81508L11.8519 8.79647C11.8702 8.78161 11.8817 8.76012 11.8841 8.73675C11.8865 8.71338 11.8795 8.68997 11.8646 8.67173L11.7513 8.53258ZM10.0401 9.11503C10.0658 9.11503 10.0913 9.10389 10.1089 9.08239L10.2584 8.89893L9.85374 9.70833C9.85265 9.70628 9.85144 9.70428 9.85015 9.70228L9.7565 9.55733L9.79427 9.52712C9.81263 9.51243 9.82444 9.49106 9.82703 9.46765C9.82966 9.44432 9.82285 9.42082 9.80816 9.4025L9.75232 9.33263L9.96124 9.07634L9.98424 9.09504C10.0006 9.10856 10.0204 9.11503 10.0401 9.11503ZM12.3052 9.19821L12.3245 9.16649C12.3414 9.19145 12.3594 9.21632 12.3782 9.24111C12.3799 9.24858 12.3816 9.25597 12.3835 9.2634C12.3796 9.25856 12.3751 9.25409 12.37 9.25004L12.3052 9.19821Z" fill="#FFAA5A"/>
</svg>
