<svg width="19" height="16" viewBox="0 0 19 16" fill="none" xmlns="http://www.w3.org/2000/svg">
<path d="M14.1285 13.154V13.6175C14.1285 14.4165 13.8138 15.1819 13.2428 15.7734C13.0986 15.9224 12.8998 15.9982 12.7011 15.9982C12.5257 15.9982 12.3503 15.9398 12.21 15.8209C11.9109 15.5667 11.8885 15.1333 12.1594 14.8517C12.4858 14.5135 12.667 14.0747 12.667 13.6167V13.1531C12.667 11.9106 11.7755 10.8346 10.4982 10.5375C10.279 10.4863 10.0451 10.5137 9.85708 10.6133C8.11891 11.5084 6.00174 11.5038 4.27818 10.617C4.08235 10.5128 3.84945 10.4853 3.63023 10.5365C2.35193 10.8346 1.46045 11.9097 1.46045 13.1522V13.6157C1.46045 14.0728 1.6407 14.5116 1.96807 14.8508C2.23892 15.1315 2.21652 15.5648 1.9174 15.819C1.61829 16.0741 1.15748 16.053 0.885647 15.7714C0.314702 15.1799 0 14.4147 0 13.6157V13.1522C0 11.278 1.34742 9.65522 3.27753 9.20541C3.85529 9.07102 4.4789 9.14873 4.98846 9.41751C6.26676 10.0758 7.85195 10.0794 9.14583 9.41386C9.64955 9.14782 10.2741 9.07102 10.8509 9.20541C12.781 9.65796 14.1285 11.2807 14.1285 13.154ZM15.7224 9.20816C15.3307 9.11765 14.9342 9.34163 14.8368 9.70824C14.7393 10.0758 14.979 10.4479 15.3697 10.5393C16.647 10.8364 17.5385 11.9125 17.5385 13.1549V13.6184C17.5385 14.0765 17.3583 14.5144 17.0309 14.8536C16.7601 15.1342 16.7825 15.5676 17.0816 15.8226C17.2219 15.9415 17.3973 16 17.5726 16C17.7714 16 17.9702 15.9241 18.1144 15.7751C18.6853 15.1836 19 14.4184 19 13.6193V13.1558C19 11.2807 17.6525 9.65796 15.7224 9.20816ZM2.43673 4.34261C2.43673 1.94823 4.51298 0 7.0647 0C9.61643 0 11.6927 1.94823 11.6927 4.34261C11.6927 6.73698 9.61643 8.68521 7.0647 8.68521C4.51298 8.68521 2.43673 6.73698 2.43673 4.34261ZM3.89819 4.34261C3.89819 5.98092 5.31874 7.31386 7.0647 7.31386C8.81067 7.31386 10.2312 5.98092 10.2312 4.34261C10.2312 2.7043 8.81067 1.37135 7.0647 1.37135C5.31874 1.37135 3.89819 2.7043 3.89819 4.34261ZM16.5642 4.34261C16.5642 2.15576 14.8231 0.303516 12.514 0.0338174C12.1155 -0.01098 11.7482 0.253234 11.6985 0.628984C11.6488 1.00473 11.9324 1.34761 12.3328 1.39423C13.9122 1.57891 15.1028 2.84692 15.1028 4.34261C15.1028 5.24862 14.6702 6.09426 13.9151 6.66293C13.6004 6.89972 13.5497 7.33133 13.8021 7.62662C13.9463 7.79576 14.1587 7.88352 14.372 7.88352C14.5328 7.88352 14.6945 7.83406 14.829 7.73258C15.9319 6.90246 16.5642 5.66642 16.5642 4.34261Z" fill="#424B75"/>
</svg>
