<svg width="27" height="28" viewBox="0 0 27 28" fill="none" xmlns="http://www.w3.org/2000/svg">
<path fill-rule="evenodd" clip-rule="evenodd" d="M25.6495 4.9326C25.9585 4.62368 26.4593 4.62368 26.7681 4.9326C27.0771 5.24146 27.0771 5.74233 26.7681 6.05114L23.0441 9.77503L24.051 10.7818C24.3599 11.0908 24.3599 11.5916 24.051 11.9005L21.4408 14.5107C21.2864 14.6651 21.0839 14.7424 20.8815 14.7424C20.6791 14.7424 20.4766 14.6651 20.3222 14.5107L18.0848 12.2734L16.0339 14.3243C15.8795 14.4787 15.677 14.556 15.4746 14.556C15.2722 14.556 15.0697 14.4788 14.9153 14.3243L12.678 12.0869C12.369 11.778 12.369 11.2771 12.678 10.9683L14.7288 8.91736L12.4915 6.68005C12.3431 6.53176 12.2598 6.33053 12.2598 6.12075C12.2598 5.91098 12.3431 5.70979 12.4915 5.56145L15.1017 2.95126C15.4107 2.64235 15.9116 2.64235 16.2204 2.95126L17.2272 3.95807L20.9535 0.231649C21.2625 -0.0772162 21.7633 -0.0772162 22.0722 0.231649C22.3811 0.540566 22.3811 1.04144 22.0722 1.3503L18.3458 5.07672L21.9255 8.65648L25.6495 4.9326ZM14.3559 11.5277L15.4746 12.6464L16.9662 11.1548L15.8474 10.0361L14.3559 11.5277ZM14.1695 6.12081L20.8815 12.8328L22.3731 11.3413L21.3662 10.3345L16.6678 5.63607L15.661 4.62927L14.1695 6.12081ZM8.12894 10.9085C8.7636 10.9085 9.3595 11.1549 9.8069 11.6023L15.4002 17.1957C15.8476 17.6431 16.094 18.239 16.094 18.8737C16.094 19.5083 15.8476 20.1043 15.4002 20.5516L10.1052 25.8466C9.35981 26.592 8.36662 27.0026 7.30856 27.0026C6.25049 27.0026 5.2573 26.592 4.5119 25.8466L1.15588 22.4906C0.410537 21.7452 0 20.752 0 19.694C0 18.6359 0.410537 17.6427 1.15594 16.8973L6.45099 11.6023C6.89839 11.1549 7.49429 10.9085 8.12894 10.9085ZM11.4849 17.755L12.6036 16.6363L10.3662 14.3989L9.24754 15.5176L11.4849 17.755ZM8.98651 24.7279L14.2816 19.4329C14.59 19.1245 14.59 18.6227 14.2815 18.3143L13.7222 17.755L12.0441 19.433C11.8897 19.5874 11.6872 19.6647 11.4848 19.6647C11.2825 19.6647 11.08 19.5874 10.9255 19.433L7.56954 16.077C7.26062 15.7681 7.26062 15.2672 7.56954 14.9583L9.24754 13.2803L8.68819 12.721C8.53399 12.5668 8.33144 12.4897 8.12889 12.4897C7.92634 12.4897 7.72379 12.5668 7.56959 12.721L2.27454 18.016C1.82798 18.4625 1.58203 19.0585 1.58203 19.6939C1.58203 20.3294 1.82798 20.9253 2.27454 21.3719L5.63055 24.7279C6.07716 25.1745 6.67311 25.4205 7.30856 25.4205C7.944 25.4205 8.53995 25.1745 8.98651 24.7279Z" fill="#424B75"/>
</svg>
