<svg width="30" height="29" viewBox="0 0 30 29" fill="none" xmlns="http://www.w3.org/2000/svg">
<path d="M24.8995 4.98096C22.2552 2.41383 18.7395 1 15 1C11.2605 1 7.74477 2.41383 5.10047 4.98096C2.46125 7.54332 1.00552 11.0222 1 14.6451C1 17.7886 2.13012 20.8336 4.18434 23.2567C6.21041 25.6466 9.03605 27.3072 12.1408 27.9327C12.3648 27.9778 12.5902 28 12.814 28C13.5617 27.9999 14.2905 27.7521 14.8832 27.2838C15.6519 26.6766 16.0928 25.7766 16.093 24.8144L16.0938 20.222C18.5246 19.7411 20.3595 17.6494 20.3595 15.1495V12.4151C20.3595 11.8287 19.8698 11.3533 19.2657 11.3533H18.336V8.64549C18.336 8.05902 17.8464 7.58362 17.2423 7.58362C16.6382 7.58362 16.1485 8.05902 16.1485 8.64549V11.3533H13.961V8.64549C13.961 8.05902 13.4714 7.58362 12.8673 7.58362C12.2632 7.58362 11.7735 8.05902 11.7735 8.64549V11.3533H10.7892C10.1851 11.3533 9.69542 11.8287 9.69542 12.4151V15.1495C9.69542 17.6305 11.5027 19.7092 13.9062 20.2106L13.9055 24.8141C13.9055 25.2528 13.653 25.5177 13.5026 25.6365C13.2452 25.8398 12.9108 25.9188 12.5853 25.8532C7.14584 24.7574 3.19603 20.0461 3.18635 14.6451C3.18635 14.6451 3.18755 14.6584 3.18755 14.6451C3.18755 8.32146 8.48661 3.12375 15.0001 3.12375C21.5135 3.12375 26.8126 8.26837 26.8126 14.592C26.8126 19.228 23.9832 23.3874 19.6046 25.1887C19.0484 25.4175 18.7885 26.0407 19.0242 26.5807C19.2599 27.1207 19.9019 27.373 20.458 27.1441C22.9572 26.1161 25.0852 24.4075 26.612 22.203C28.1742 19.9474 29 17.3155 29 14.592C29 10.9614 27.5438 7.54815 24.8995 4.98096ZM11.8828 15.1495V13.477H18.1719V15.1495C18.1719 16.8329 16.7613 18.2024 15.0273 18.2024C13.2934 18.2024 11.8828 16.8328 11.8828 15.1495Z" fill="#424B75" stroke="#F5F7F9" stroke-width="0.3"/>
</svg>
