<svg width="28" height="23" viewBox="0 0 28 23" fill="none" xmlns="http://www.w3.org/2000/svg">
<path fill-rule="evenodd" clip-rule="evenodd" d="M20.4333 7.17394C22.4114 7.17394 24.0204 5.56492 24.0204 3.58708C24.0204 1.60902 22.4111 0 20.4333 0C18.4555 0 16.8462 1.60925 16.8462 3.58708C16.8462 5.56492 18.4555 7.17394 20.4333 7.17394ZM20.4333 1.75952C21.4412 1.75952 22.2609 2.57938 22.2609 3.58708C22.2609 4.59478 21.441 5.41464 20.4333 5.41464C19.4256 5.41464 18.6058 4.59478 18.6058 3.58708C18.6058 2.57938 19.4256 1.75952 20.4333 1.75952ZM10.4188 3.62312C10.4188 5.60095 8.80983 7.2102 6.83176 7.2102C4.85393 7.2102 3.24468 5.60118 3.24468 3.62312C3.24468 1.64529 4.85393 0.0362652 6.83176 0.0362652C8.8096 0.0362652 10.4188 1.64529 10.4188 3.62312ZM8.65932 3.62312C8.65932 2.61542 7.83946 1.79556 6.83176 1.79556C5.82406 1.79556 5.0042 2.61542 5.0042 3.62312C5.0042 4.63082 5.82406 5.45068 6.83176 5.45068C7.83946 5.45068 8.65932 4.63082 8.65932 3.62312ZM1.48114 8.97879H12.1828C12.6458 8.97879 13.0732 9.18908 13.3557 9.55606C13.6381 9.92281 13.7323 10.3899 13.6139 10.8375L11.3101 19.5517C10.7733 21.582 8.9318 23 6.83187 23C4.73172 23 2.89018 21.582 2.35369 19.5517L0.0498831 10.8375C-0.0683195 10.3899 0.0258302 9.92281 0.308051 9.55583C0.590729 9.18908 1.01818 8.97879 1.48114 8.97879ZM6.83187 21.2405C8.13417 21.2405 9.27633 20.3611 9.60918 19.1018L11.8202 10.7381H1.84354L4.05457 19.1018C4.38742 20.3611 5.52958 21.2405 6.83187 21.2405ZM24.9118 12.391L27.2154 21.105C27.3338 21.5526 27.2395 22.0197 26.9572 22.3867C26.6748 22.7535 26.2473 22.9637 25.7844 22.9637H15.0827C14.6197 22.9637 14.192 22.7535 13.9098 22.3865C13.6274 22.0197 13.5332 21.5526 13.6514 21.105L15.9552 12.3908C16.492 10.3605 18.3335 8.94276 20.4334 8.94276C22.5336 8.94276 24.3751 10.3605 24.9118 12.391ZM17.6561 12.8405L15.4451 21.2042H25.4218L23.2107 12.8405C22.8779 11.5815 21.7357 10.7021 20.4334 10.7021C19.1311 10.7021 17.989 11.5815 17.6561 12.8405Z" fill="#424B75"/>
</svg>
