<svg width="17" height="19" viewBox="0 0 17 19" fill="none" xmlns="http://www.w3.org/2000/svg">
<path fill-rule="evenodd" clip-rule="evenodd" d="M16.7326 10.6859C17.2828 6.05457 16.4682 3.13072 14.999 1.80826L14.9998 1.80749C12.6284 -0.450905 4.61991 -0.785169 1.78289 1.90892C0.508848 3.22677 0.0600881 5.16089 0.010909 7.5553C-0.0382701 9.95048 -0.0966704 14.4373 4.08432 15.6545H4.08816L4.08432 17.5133C4.08432 17.5133 4.05589 18.2664 4.53692 18.4177C5.05504 18.5856 5.30603 18.2854 6.76261 16.5428L7.04736 16.2024C9.90897 16.4506 12.1067 15.8819 12.3564 15.799C12.408 15.7817 12.4811 15.7625 12.5717 15.7386L12.5718 15.7386C13.4964 15.4957 16.2511 14.7719 16.7326 10.6859ZM7.32938 14.8945C7.32938 14.8945 5.5182 17.1529 4.95495 17.7392C4.77052 17.9298 4.56843 17.9121 4.5715 17.534C4.5715 17.2859 4.58534 14.4481 4.58534 14.4481C1.16242 13.4671 1.23968 9.87089 1.28362 7.82526C1.28519 7.75246 1.28671 7.68162 1.28803 7.61293C1.32645 5.61349 1.69222 3.97598 2.77109 2.8733C5.26001 0.539593 12.2811 1.06135 14.07 2.74266C16.0606 4.50734 15.5944 9.20377 15.4981 10.1736L15.4981 10.1737C15.4886 10.2693 15.4827 10.3287 15.4831 10.3454C15.0784 13.7177 12.89 14.2461 12.1025 14.4362C12.0154 14.4573 11.9454 14.4742 11.8969 14.4903C11.6886 14.5595 9.75606 15.0567 7.32938 14.8945ZM8.33139 3.31207C8.03555 3.31207 8.03555 3.77312 8.33139 3.77697C10.6267 3.79464 12.517 5.3945 12.5377 8.32911C12.5377 8.63878 12.9911 8.63494 12.9873 8.32526H12.9865C12.9619 5.1632 10.8979 3.32974 8.33139 3.31207ZM11.8001 7.85346C11.7962 8.16313 11.3436 8.14853 11.3505 7.8427C11.3859 6.31584 10.463 5.12017 8.71101 4.98724C8.41593 4.96572 8.44667 4.50082 8.74251 4.52234C10.7627 4.67372 11.8377 6.1099 11.8001 7.85346ZM10.8664 9.82599C10.4868 9.60623 10.1003 9.743 9.94048 9.95893L9.60621 10.3916C9.43639 10.6113 9.11903 10.5821 9.11903 10.5821C6.803 9.96969 6.18365 7.54608 6.18365 7.54608C6.18365 7.54608 6.15522 7.21796 6.36731 7.042L6.78533 6.6962C6.99434 6.53023 7.12651 6.13064 6.91366 5.73798C6.4849 4.96332 6.1623 4.57136 5.94619 4.30879C5.87569 4.22313 5.81653 4.15125 5.7687 4.08433C5.5643 3.82845 5.25693 3.77082 4.93727 3.94371H4.93035C4.26567 4.33253 3.53797 5.06023 3.7708 5.80944C3.83969 5.94642 3.91858 6.13536 4.01407 6.36404C4.46926 7.45417 5.30155 9.44742 7.22487 11.0201C8.31833 11.9199 10.0488 12.8421 10.7834 13.0549L10.7904 13.0657C11.5142 13.307 12.2181 12.5508 12.5938 11.8662V11.8608C12.7606 11.5296 12.7053 11.2161 12.4617 11.0109C12.0298 10.5898 11.3782 10.1249 10.8664 9.82599ZM10.194 7.45848C10.1556 6.66624 9.79754 6.28049 9.05908 6.23746C8.76016 6.21978 8.78783 5.75489 9.08367 5.77256C10.055 5.82635 10.5944 6.40267 10.6436 7.43697C10.6574 7.74664 10.2079 7.76816 10.194 7.45848Z" fill="white"/>
</svg>
