<svg width="18" height="18" viewBox="0 0 18 18" fill="none" xmlns="http://www.w3.org/2000/svg">
<path fill-rule="evenodd" clip-rule="evenodd" d="M11.1488 10.0522C10.8081 10.1914 10.5905 10.7248 10.3697 10.9972C10.2565 11.1368 10.1215 11.1586 9.9475 11.0886C8.66888 10.5792 7.68873 9.72598 6.98314 8.5493C6.86361 8.36684 6.88506 8.2227 7.0292 8.05324C7.24224 7.80223 7.51013 7.51711 7.56779 7.17891C7.69576 6.43078 6.71772 4.11012 5.42608 5.16164C1.70938 8.19035 11.6262 16.2232 13.416 11.8786C13.9222 10.6471 11.7134 9.8209 11.1488 10.0522ZM9.00005 16.4278C7.68556 16.4278 6.39217 16.0784 5.25979 15.4167C5.07804 15.3102 4.85831 15.2821 4.65511 15.3373L2.19454 16.0126L3.05164 14.1244C3.16836 13.8674 3.13848 13.5682 2.97359 13.3397C2.05672 12.0688 1.57192 10.5683 1.57192 9C1.57192 4.90395 4.90401 1.57184 9.00005 1.57184C13.0961 1.57184 16.4278 4.90395 16.4278 9C16.4278 13.0957 13.0957 16.4278 9.00005 16.4278ZM9.00005 0C4.03742 0 9.40891e-05 4.03734 9.40891e-05 9C9.40891e-05 10.7459 0.495795 12.4225 1.43763 13.8776L0.0704062 16.8887C-0.0558041 17.1668 -0.0097496 17.4923 0.187827 17.724C0.339702 17.9016 0.559427 18 0.786184 18C1.29313 18 4.05746 17.1313 4.76093 16.9383C6.06135 17.634 7.51998 18 9.00005 18C13.9623 18 18 13.9623 18 9C18 4.03734 13.9623 0 9.00005 0Z" fill="white"/>
</svg>
