<svg width="28" height="26" viewBox="0 0 28 26" fill="none" xmlns="http://www.w3.org/2000/svg">
<path fill-rule="evenodd" clip-rule="evenodd" d="M22.7935 0.250975C23.1282 -0.0836582 23.6708 -0.0836582 24.0054 0.250975C26.5814 2.82692 28 6.25178 28 9.89479C28 13.5378 26.5814 16.9627 24.0054 19.5387C23.8381 19.7061 23.6187 19.7897 23.3994 19.7897C23.1801 19.7897 22.9608 19.7061 22.7935 19.5387C22.4588 19.204 22.4588 18.6614 22.7935 18.3268C27.4429 13.6774 27.4429 6.11227 22.7935 1.4629C22.4588 1.12822 22.4588 0.585607 22.7935 0.250975ZM20.3145 3.94141C19.9799 3.60673 19.4373 3.60673 19.1026 3.94141C18.7679 4.27605 18.7679 4.81866 19.1026 5.15334C21.7169 7.76774 21.7169 12.0216 19.1026 14.6359C18.7679 14.9705 18.7679 15.5131 19.1026 15.8478C19.2699 16.0152 19.4892 16.0988 19.7085 16.0988C19.9278 16.0988 20.1472 16.0152 20.3145 15.8478C23.5971 12.5653 23.5971 7.22403 20.3145 3.94141ZM16.3732 7.52152C15.0645 6.21285 12.9353 6.21285 11.6266 7.52146C10.9926 8.1554 10.6436 8.99825 10.6436 9.89474C10.6436 10.7912 10.9926 11.6341 11.6266 12.268C12.0614 12.7028 12.5871 12.9923 13.1429 13.1381V25.0023C13.1429 25.4756 13.5266 25.8593 13.9999 25.8593C14.4732 25.8593 14.8568 25.4756 14.8568 25.0023V13.1382C15.4127 12.9923 15.9383 12.7029 16.3732 12.2681C17.0072 11.6341 17.3562 10.7913 17.3562 9.89479C17.3562 8.9983 17.0072 8.15546 16.3732 7.52152ZM15.1613 11.0561C14.5209 11.6965 13.4789 11.6965 12.8386 11.0561C12.5284 10.7459 12.3576 10.3336 12.3576 9.89479C12.3576 9.45609 12.5284 9.04364 12.8386 8.73345C13.1587 8.41331 13.5794 8.25318 13.9999 8.25318C14.4205 8.25318 14.8411 8.41325 15.1613 8.73345C15.4715 9.04369 15.6423 9.45609 15.6423 9.89479C15.6423 10.3335 15.4715 10.7459 15.1613 11.0561ZM8.89696 5.15358C9.23176 4.81895 9.23176 4.27634 8.89702 3.94165C8.56238 3.60702 8.01977 3.60702 7.68509 3.94165C4.40247 7.22427 4.40252 12.5655 7.68509 15.848C7.85243 16.0153 8.07173 16.099 8.29102 16.099C8.51032 16.099 8.72967 16.0153 8.89696 15.848C9.23165 15.5134 9.23165 14.9707 8.89696 14.6361C6.28263 12.0217 6.28263 7.76791 8.89696 5.15358ZM5.20652 0.250975C5.54121 0.585662 5.54121 1.12827 5.20652 1.4629C0.557211 6.11222 0.557211 13.6772 5.20652 18.3266C5.54121 18.6613 5.54121 19.2039 5.20652 19.5385C5.03923 19.7059 4.81983 19.7896 4.60059 19.7896C4.38129 19.7896 4.16199 19.7059 3.99465 19.5385C1.41865 16.9626 0 13.5376 0 9.89473C0 6.25183 1.41865 2.82692 3.99459 0.250975C4.32928 -0.0836582 4.87189 -0.0836582 5.20652 0.250975Z" fill="#424B75"/>
</svg>
